<?xml version="1.0" encoding="utf-8"?>
<svg xmlns="http://www.w3.org/2000/svg" viewBox="11.0419 234.8512 435.4945 117.5115" width="435.495px" height="117.511px" preserveAspectRatio="none" xmlns:bx="https://boxy-svg.com"><defs/><g id="object-4" transform="matrix(1, 0, 0, 1, 0, 1.4210854715202004e-14)"><g transform="matrix(-1, 0, 0, 1, 153.776489, 43.60675)" style=""><path d="M 74.964 210.486 C 74.964 210.486 63.984 207.976 55.064 211.726 C 46.704 215.246 45.514 221.956 46.264 225.806 C 47.014 229.656 49.434 233.026 54.284 233.336 C 57.594 233.546 58.714 231.646 58.254 230.846 C 58.014 230.436 54.504 228.216 56.114 225.446 C 57.464 223.136 62.014 225.266 63.314 227.276 C 64.534 229.156 66.134 231.876 66.134 231.876 C 66.134 231.876 79.934 225.966 79.644 225.586 C 79.354 225.206 74.964 210.486 74.964 210.486" fill="#e74b8c"/><path d="M 74.304 218.186 L 69.984 214.336 L 62.904 222.926 L 66.934 229.206 L 77.214 224.706 L 74.304 218.186 Z" fill="#fcd817"/><path d="M 52.724 221.936 C 52.184 223.526 52.664 226.076 50.664 226.296 C 48.604 226.526 47.114 224.036 48.364 220.056 C 49.444 216.626 53.704 214.586 55.354 217.386 C 56.564 219.446 53.704 219.026 52.724 221.936" fill="#ef7fad"/><path d="M 62.714 206.686 C 62.434 207.156 57.554 214.336 57.554 214.336 L 62.244 221.796 L 67.874 218.936 L 69.044 213.256 L 62.714 206.686 Z" fill="#bbd047"/><path d="M 57.364 201.196 L 53.094 206.586 L 57.274 213.866 L 61.164 211.936 L 62.954 206.826 L 57.364 201.196 Z" fill="#62a5a8"/><path d="M 51.544 195.326 L 48.594 198.426 L 52.954 206.266 L 55.444 204.436 L 57.174 200.956 L 51.544 195.326 Z" fill="#38b2e8"/><path d="M 45.914 191.436 C 44.904 192.446 48.584 198.386 48.584 198.386 C 48.584 198.386 51.304 195.286 51.304 195.106 C 51.314 194.906 47.084 190.256 45.914 191.436" fill="#a37bcb"/><path d="M 69.054 212.876 C 70.414 212.496 71.354 215.036 70.134 217.616 C 69.044 219.916 67.464 221.696 65.344 222.876 C 64.294 223.456 62.714 224.096 62.104 222.966 C 61.444 221.756 62.194 221.136 63.514 220.196 C 64.724 219.326 65.954 218.036 66.654 216.816 C 67.354 215.596 68.034 213.156 69.054 212.876 M 62.574 206.076 C 63.674 205.756 64.494 207.956 63.504 210.166 C 62.624 212.136 61.534 213.706 59.834 214.716 C 58.994 215.216 57.714 215.766 57.224 214.796 C 56.694 213.756 57.194 213.026 58.254 212.216 C 59.234 211.476 60.084 210.116 60.644 209.076 C 61.214 208.036 61.754 206.316 62.574 206.076 M 56.964 200.076 C 57.874 200.326 58.514 201.936 57.694 203.586 C 56.964 205.056 56.254 205.836 54.834 206.586 C 54.124 206.956 53.304 207.426 52.854 206.866 C 52.284 206.166 52.074 205.166 52.964 204.566 C 53.784 204.016 54.704 203.346 55.314 202.176 C 55.724 201.366 56.124 199.846 56.964 200.076 M 50.944 194.516 C 51.564 194.366 52.324 195.666 51.774 196.706 C 51.284 197.636 50.654 198.226 49.694 198.706 C 49.224 198.946 48.694 199.086 48.414 198.636 C 48.114 198.146 47.834 197.806 48.434 197.426 C 48.984 197.076 49.754 196.286 50.074 195.786 C 50.394 195.296 50.484 194.636 50.944 194.516" fill="#a364b2"/><path d="M 74.154 305.576 C 73.144 304.906 78.154 287.486 80.124 282.846 C 82.094 278.196 83.264 274.306 83.264 274.306 C 83.264 274.306 73.834 275.756 67.734 275.806 C 63.084 275.846 56.334 275.246 56.334 275.246 L 42.814 257.506 C 42.814 257.506 46.614 250.606 48.864 247.796 C 51.114 244.976 57.874 235.826 61.254 232.596 C 64.634 229.356 69.274 225.976 71.254 225.136 C 73.224 224.296 74.494 223.726 74.494 223.726 C 74.494 223.726 73.504 217.676 73.934 213.876 C 74.354 210.076 79.744 199.466 80.594 199.466 C 81.724 199.466 86.604 206.696 87.584 211.616 C 88.574 216.536 99.274 230.336 99.274 230.336 L 130.524 289.466 C 130.524 289.466 131.084 305.236 130.944 305.796 C 130.804 306.356 113.484 308.756 102.924 308.756 C 92.364 308.756 75.004 306.146 74.154 305.576" fill="#dfdfdf"/><path d="M 95.444 255.056 C 94.404 255.006 91.434 260.956 88.454 265.336 C 85.944 269.016 83.004 270.786 79.864 272.426 C 76.624 274.116 71.814 275.216 73.454 275.546 C 75.094 275.876 84.884 274.786 88.164 273.406 C 90.014 272.636 92.594 268.826 93.914 266.296 C 95.234 263.766 97.604 255.146 95.444 255.056" fill="#b0b0b0"/><path d="M 77.664 243.616 C 77.874 246.716 76.744 249.386 73.514 249.596 C 71.234 249.746 69.524 247.436 69.234 244.616 C 69.004 242.416 69.924 239.576 72.934 239.156 C 75.764 238.756 77.464 240.786 77.664 243.616" fill="#303030"/><path d="M 87.444 211.656 C 87.444 211.656 95.934 215.476 99.204 214.756 C 101.734 214.196 102.614 212.366 102.724 210.536 C 102.864 208.076 100.684 208.356 100.334 207.366 C 99.984 206.376 102.584 204.616 105.614 205.186 C 108.644 205.746 112.254 208.546 112.184 213.046 C 112.114 217.546 109.344 219.966 109.344 219.966 C 109.344 219.966 116.644 219.616 121.524 224.616 C 127.014 230.246 125.814 239.466 125.814 239.466 C 125.814 239.466 128.704 239.886 129.754 238.406 C 130.804 236.926 130.524 235.236 129.824 234.256 C 129.124 233.266 131.164 232.636 132.494 233.196 C 133.834 233.756 140.014 238.186 136.654 245.336 C 134.574 249.776 129.324 250.446 129.324 250.446 C 129.324 250.446 138.124 254.336 141.344 264.146 C 144.884 274.946 141.014 282.126 137.004 289.016 C 132.994 295.916 133.354 296.326 133.134 298.586 C 132.854 301.406 132.004 304.926 130.954 304.846 C 129.894 304.776 128.634 301.816 127.994 298.586 C 127.364 295.346 123.414 292.176 120.254 289.296 C 117.094 286.416 109.154 278.806 106.874 271.846 C 103.984 263.046 105.464 250.796 105.464 250.796 C 105.464 250.796 96.734 246.786 91.874 238.756 C 86.614 230.066 87.084 223.696 87.084 223.696 C 87.084 223.696 88.424 219.896 88.494 217.286 C 88.564 214.676 87.444 211.656 87.444 211.656" fill="#e74b8c"/><path d="M 101.174 217.716 C 101.784 220.336 106.594 218.986 107.514 214.546 C 108.434 210.106 105.894 208.136 104.414 208.986 C 102.934 209.826 104.764 212.086 103.784 213.986 C 102.804 215.886 100.674 215.596 101.174 217.716 M 125.574 243.276 C 124.734 245.836 129.124 246.726 132.564 243.966 C 136.094 241.126 135.094 236.926 133.054 237.136 C 130.464 237.406 131.564 240.336 129.734 241.446 C 127.904 242.566 126.254 241.226 125.574 243.276 M 95.614 221.016 C 92.234 220.596 91.764 227.186 93.854 231.716 C 97.164 238.896 102.654 237.556 106.454 242.206 C 109.394 245.806 108.704 250.446 111.734 250.376 C 114.764 250.306 115.534 245.236 110.894 239.046 C 106.244 232.856 100.404 232.856 98.644 229.126 C 96.874 225.386 99.554 221.516 95.614 221.016 M 112.784 252.906 C 108.914 255.116 111.674 260.126 113.774 260.576 C 116.734 261.206 118.064 259.236 118.424 257.266 C 118.784 255.296 116.724 250.656 112.784 252.906 M 115.744 264.806 C 112.684 265.306 113.024 268.376 113.564 271.496 C 114.484 276.846 117.294 281.986 120.604 284.726 C 123.804 287.376 125.604 286.556 126.514 285.496 C 127.594 284.256 126.584 282.046 125.314 280.566 C 124.044 279.086 122.404 277.186 121.304 275.566 C 119.964 273.596 119.804 271.036 119.544 269.586 C 119.054 266.776 118.764 264.306 115.744 264.806" fill="#f081af"/><path d="M 35.214 278.956 C 38.314 284.806 45.564 283.316 45.564 283.316 C 45.564 283.316 52.394 280.216 52.394 280.006 C 52.394 279.796 56.894 274.096 56.894 274.096 C 56.894 274.096 55.694 268.956 51.054 263.326 C 47.384 258.886 43.524 256.706 43.524 256.706 L 35.074 264.306 C 35.074 264.306 30.854 270.716 35.214 278.956" fill="#fff"/><path d="M 40.774 263.536 C 40.284 265.366 41.904 266.066 42.464 266.706 C 43.024 267.336 41.694 270.016 43.594 270.716 C 45.494 271.416 47.674 268.256 46.974 265.506 C 46.214 262.566 41.514 260.796 40.774 263.536" fill="#90909b"/><path d="M 44.364 256.476 C 43.874 255.536 42.794 256.006 41.734 256.996 C 40.674 257.986 34.694 262.346 33.004 266.336 C 31.764 269.266 30.874 274.916 34.094 279.516 C 37.434 284.296 40.434 284.756 45.004 284.376 C 51.694 283.816 55.394 278.326 56.104 277.406 C 56.814 276.486 58.354 274.496 57.514 273.516 C 56.674 272.526 55.884 273.956 54.794 275.436 C 53.384 277.336 52.264 278.486 50.854 279.756 C 50.034 280.496 47.684 281.776 46.704 281.986 C 45.714 282.196 48.654 280.506 49.804 278.536 C 50.584 277.206 52.194 274.036 52.194 274.036 L 49.444 273.196 C 49.444 273.196 48.104 276.106 47.054 277.376 C 45.994 278.646 42.694 281.506 41.704 281.716 C 40.714 281.926 36.984 280.266 35.324 277.286 C 33.724 274.426 33.474 270.316 35.094 267.076 C 36.714 263.836 40.794 260.526 42.064 259.546 C 43.314 258.536 44.994 257.676 44.364 256.476" fill="#afafaf"/><path d="M 52.394 271.306 C 51.634 270.646 50.374 271.116 49.724 272.006 C 49.064 272.896 48.834 273.926 50.144 274.636 C 51.454 275.336 52.304 274.586 52.914 273.746 C 53.514 272.896 53.094 271.916 52.394 271.306" fill="#90909b"/></g><path d="M 205.725 273.412 L 217.041 273.412 L 217.041 314.221 C 217.041 318.694 215.989 322.629 213.884 326.024 C 211.78 329.42 208.826 332.069 205.024 333.97 C 201.221 335.871 196.778 336.822 191.695 336.822 C 186.591 336.822 182.138 335.871 178.336 333.97 C 174.534 332.069 171.585 329.42 169.49 326.024 C 167.396 322.629 166.349 318.694 166.349 314.221 L 166.349 273.412 L 177.665 273.412 L 177.665 313.275 C 177.665 315.878 178.239 318.196 179.388 320.229 C 180.537 322.263 182.159 323.854 184.253 325.002 C 186.347 326.151 188.828 326.726 191.695 326.726 C 194.562 326.726 197.048 326.151 199.152 325.002 C 201.257 323.854 202.878 322.263 204.017 320.229 C 205.156 318.196 205.725 315.878 205.725 313.275 L 205.725 273.412 Z M 239.901 308.426 L 239.901 335.876 L 228.86 335.876 L 228.86 289.028 L 239.413 289.028 L 239.413 296.988 L 239.962 296.988 C 241.04 294.365 242.763 292.281 245.132 290.736 C 247.501 289.19 250.434 288.418 253.931 288.418 C 257.164 288.418 259.986 289.109 262.395 290.492 C 264.805 291.874 266.675 293.877 268.007 296.5 C 269.339 299.123 269.995 302.305 269.974 306.046 L 269.974 335.876 L 258.934 335.876 L 258.934 307.755 C 258.934 304.623 258.125 302.173 256.509 300.404 C 254.892 298.635 252.661 297.751 249.813 297.751 C 247.882 297.751 246.169 298.173 244.674 299.016 C 243.18 299.86 242.011 301.075 241.166 302.661 C 240.323 304.247 239.901 306.169 239.901 308.426 Z M 281.225 335.876 L 281.225 289.028 L 292.266 289.028 L 292.266 335.876 L 281.225 335.876 Z M 286.791 282.378 C 285.033 282.378 283.523 281.791 282.262 280.615 C 281.001 279.439 280.371 278.026 280.371 276.376 C 280.371 274.725 281 273.315 282.258 272.146 C 283.516 270.977 285.022 270.392 286.776 270.392 C 288.545 270.392 290.054 270.98 291.305 272.155 C 292.556 273.331 293.181 274.744 293.181 276.395 C 293.181 278.046 292.556 279.456 291.305 280.625 C 290.054 281.794 288.55 282.378 286.791 282.378 Z M 324.035 336.792 C 319.358 336.792 315.347 335.765 312.002 333.711 C 308.657 331.657 306.085 328.815 304.286 325.186 C 302.486 321.557 301.586 317.373 301.586 312.635 C 301.586 307.877 302.502 303.673 304.332 300.023 C 306.162 296.373 308.749 293.526 312.094 291.483 C 315.438 289.439 319.399 288.418 323.974 288.418 C 327.777 288.418 331.147 289.114 334.084 290.507 C 337.023 291.9 339.366 293.862 341.115 296.393 C 342.864 298.925 343.86 301.878 344.104 305.253 L 333.551 305.253 C 333.124 302.997 332.112 301.111 330.516 299.596 C 328.92 298.081 326.79 297.324 324.126 297.324 C 321.869 297.324 319.887 297.929 318.179 299.139 C 316.471 300.349 315.144 302.082 314.199 304.339 C 313.253 306.596 312.78 309.3 312.78 312.451 C 312.78 315.644 313.248 318.384 314.184 320.671 C 315.119 322.959 316.435 324.718 318.133 325.948 C 319.831 327.179 321.829 327.794 324.126 327.794 C 325.753 327.794 327.212 327.484 328.503 326.863 C 329.794 326.243 330.877 325.343 331.752 324.164 C 332.626 322.985 333.226 321.551 333.551 319.863 L 344.104 319.863 C 343.84 323.178 342.864 326.111 341.176 328.663 C 339.488 331.215 337.191 333.208 334.283 334.641 C 331.375 336.075 327.959 336.792 324.035 336.792 Z M 373.639 336.792 C 369.064 336.792 365.099 335.785 361.744 333.772 C 358.389 331.759 355.791 328.942 353.951 325.323 C 352.111 321.703 351.191 317.474 351.191 312.635 C 351.191 307.796 352.111 303.556 353.951 299.916 C 355.791 296.277 358.389 293.45 361.744 291.437 C 365.099 289.424 369.064 288.418 373.639 288.418 C 378.214 288.418 382.179 289.424 385.534 291.437 C 388.889 293.45 391.487 296.277 393.327 299.916 C 395.167 303.556 396.087 307.796 396.087 312.635 C 396.087 317.474 395.167 321.703 393.327 325.323 C 391.487 328.942 388.889 331.759 385.534 333.772 C 382.179 335.785 378.214 336.792 373.639 336.792 Z M 373.7 327.946 C 376.181 327.946 378.255 327.26 379.922 325.888 C 381.59 324.515 382.835 322.67 383.658 320.352 C 384.482 318.034 384.893 315.451 384.893 312.604 C 384.893 309.737 384.482 307.14 383.658 304.811 C 382.835 302.483 381.59 300.628 379.922 299.245 C 378.255 297.863 376.181 297.171 373.7 297.171 C 371.158 297.171 369.049 297.863 367.371 299.245 C 365.694 300.628 364.443 302.483 363.619 304.811 C 362.796 307.14 362.384 309.737 362.384 312.604 C 362.384 315.451 362.796 318.034 363.619 320.352 C 364.443 322.67 365.694 324.515 367.371 325.888 C 369.049 327.26 371.158 327.946 373.7 327.946 Z M 416.463 308.426 L 416.463 335.876 L 405.421 335.876 L 405.421 289.028 L 415.974 289.028 L 415.974 296.988 L 416.523 296.988 C 417.601 294.365 419.324 292.281 421.693 290.736 C 424.062 289.19 426.995 288.418 430.493 288.418 C 433.726 288.418 436.547 289.109 438.956 290.492 C 441.366 291.874 443.236 293.877 444.568 296.5 C 445.9 299.123 446.556 302.305 446.536 306.046 L 446.536 335.876 L 435.494 335.876 L 435.494 307.755 C 435.494 304.623 434.686 302.173 433.069 300.404 C 431.453 298.635 429.221 297.751 426.375 297.751 C 424.443 297.751 422.73 298.173 421.236 299.016 C 419.741 299.86 418.572 301.075 417.728 302.661 C 416.884 304.247 416.463 306.169 416.463 308.426 Z" style="text-wrap-mode: nowrap; fill: rgb(65, 65, 65);"/></g></svg>