<?xml version="1.0" encoding="utf-8"?>
<svg xmlns="http://www.w3.org/2000/svg" viewBox="0 0 1200 627" width="1200px" height="627px" xmlns:bx="https://boxy-svg.com"><rect width="1200" height="627" style="fill: rgb(17, 17, 17);"/><defs><style>@import url(https://fonts.googleapis.com/css2?family=Inter%3Aital%2Cwght%400%2C100..900&amp;display=swap);</style><radialGradient id="radial-dark" cx="0" cy="0" r="1" gradientUnits="userSpaceOnUse" gradientTransform="matrix(0, 335.114044, -379.525665, 0, 493.172104, 255.536011)"><stop stop-color="#D9D9D9"/><stop offset="1" stop-opacity="0"/></radialGradient><linearGradient id="gradient-1"><stop offset="0.394" style="stop-color: rgba(240, 129, 175, 0.24);"/><stop offset="1" style=""/></linearGradient><radialGradient id="gradient-1-0" href="#gradient-1" gradientUnits="userSpaceOnUse" cx="468.374" cy="255.536" r="533.236" gradientTransform="matrix(0.913215, 0, 0, 0.793466, 172.273743, 110.740875)"/></defs><path d="M 353.95 241.23 L 356.59 241.23 L 356.59 255.68 Q 356.59 257.92 355.54 259.67 Q 354.49 261.42 352.58 262.43 Q 350.68 263.44 348.11 263.44 Q 345.54 263.44 343.64 262.43 Q 341.73 261.42 340.68 259.67 Q 339.63 257.92 339.63 255.68 L 339.63 241.23 L 342.27 241.23 L 342.27 255.47 Q 342.27 257.06 342.98 258.31 Q 343.68 259.55 344.98 260.26 Q 346.29 260.96 348.11 260.96 Q 349.93 260.96 351.24 260.26 Q 352.55 259.55 353.25 258.31 Q 353.95 257.06 353.95 255.47 Z M 364.05 253.21 L 364.05 263.05 L 361.53 263.05 L 361.53 246.69 L 363.96 246.69 L 363.96 249.25 L 364.17 249.25 Q 364.75 248 365.92 247.24 Q 367.09 246.48 368.95 246.48 Q 370.61 246.48 371.85 247.15 Q 373.1 247.83 373.79 249.2 Q 374.49 250.57 374.49 252.65 L 374.49 263.05 L 371.97 263.05 L 371.97 252.82 Q 371.97 250.9 370.97 249.82 Q 369.97 248.73 368.22 248.73 Q 367.02 248.73 366.08 249.26 Q 365.13 249.78 364.59 250.78 Q 364.05 251.78 364.05 253.21 Z M 379.09 263.05 L 379.09 246.69 L 381.6 246.69 L 381.6 263.05 Z M 380.36 243.96 Q 379.63 243.96 379.1 243.46 Q 378.57 242.96 378.57 242.26 Q 378.57 241.55 379.1 241.05 Q 379.63 240.55 380.36 240.55 Q 381.1 240.55 381.63 241.05 Q 382.15 241.55 382.15 242.26 Q 382.15 242.96 381.63 243.46 Q 381.1 243.96 380.36 243.96 Z M 399.58 246.69 L 393.53 263.05 L 390.98 263.05 L 384.93 246.69 L 387.65 246.69 L 392.17 259.73 L 392.34 259.73 L 396.86 246.69 Z M 409.17 263.39 Q 406.81 263.39 405.1 262.34 Q 403.39 261.29 402.47 259.4 Q 401.55 257.51 401.55 255 Q 401.55 252.48 402.47 250.56 Q 403.39 248.64 405.05 247.56 Q 406.7 246.48 408.92 246.48 Q 410.2 246.48 411.44 246.9 Q 412.69 247.33 413.71 248.28 Q 414.73 249.23 415.34 250.8 Q 415.95 252.37 415.95 254.66 L 415.95 255.72 L 403.34 255.72 L 403.34 253.55 L 413.39 253.55 Q 413.39 252.16 412.84 251.08 Q 412.3 249.99 411.29 249.36 Q 410.28 248.73 408.92 248.73 Q 407.42 248.73 406.32 249.47 Q 405.23 250.21 404.65 251.4 Q 404.06 252.58 404.06 253.93 L 404.06 255.38 Q 404.06 257.24 404.7 258.52 Q 405.35 259.8 406.5 260.47 Q 407.65 261.13 409.17 261.13 Q 410.16 261.13 410.97 260.85 Q 411.77 260.57 412.36 260 Q 412.94 259.43 413.26 258.58 L 415.69 259.26 Q 415.31 260.5 414.4 261.43 Q 413.5 262.36 412.17 262.88 Q 410.84 263.39 409.17 263.39 Z M 419.78 263.05 L 419.78 246.69 L 422.21 246.69 L 422.21 249.16 L 422.38 249.16 Q 422.83 247.95 424 247.19 Q 425.17 246.43 426.64 246.43 Q 426.92 246.43 427.33 246.44 Q 427.75 246.45 427.96 246.48 L 427.96 249.03 Q 427.84 249 427.38 248.93 Q 426.93 248.86 426.43 248.86 Q 425.24 248.86 424.3 249.36 Q 423.37 249.85 422.83 250.72 Q 422.3 251.59 422.3 252.7 L 422.3 263.05 Z M 442.54 250.35 L 440.28 250.99 Q 440.06 250.43 439.65 249.89 Q 439.24 249.35 438.54 249 Q 437.84 248.65 436.74 248.65 Q 435.24 248.65 434.24 249.34 Q 433.25 250.02 433.25 251.08 Q 433.25 252.02 433.93 252.56 Q 434.61 253.1 436.06 253.46 L 438.49 254.06 Q 440.68 254.59 441.76 255.69 Q 442.83 256.78 442.83 258.49 Q 442.83 259.9 442.03 261.01 Q 441.23 262.11 439.79 262.75 Q 438.35 263.39 436.44 263.39 Q 433.94 263.39 432.3 262.31 Q 430.66 261.22 430.22 259.13 L 432.61 258.53 Q 432.95 259.86 433.9 260.52 Q 434.86 261.18 436.4 261.18 Q 438.16 261.18 439.2 260.43 Q 440.24 259.67 440.24 258.62 Q 440.24 257.77 439.64 257.19 Q 439.04 256.61 437.81 256.32 L 435.08 255.68 Q 432.83 255.15 431.78 254.02 Q 430.73 252.9 430.73 251.21 Q 430.73 249.82 431.52 248.76 Q 432.3 247.69 433.66 247.08 Q 435.02 246.48 436.74 246.48 Q 439.17 246.48 440.56 247.54 Q 441.95 248.61 442.54 250.35 Z M 451.44 263.44 Q 449.89 263.44 448.62 262.84 Q 447.35 262.25 446.6 261.13 Q 445.86 260.01 445.86 258.41 Q 445.86 257 446.41 256.12 Q 446.97 255.24 447.89 254.74 Q 448.82 254.24 449.94 253.99 Q 451.07 253.74 452.21 253.59 Q 453.7 253.4 454.63 253.3 Q 455.56 253.2 456 252.95 Q 456.43 252.71 456.43 252.1 L 456.43 252.02 Q 456.43 250.44 455.57 249.56 Q 454.71 248.69 452.97 248.69 Q 451.17 248.69 450.15 249.48 Q 449.13 250.27 448.71 251.16 L 446.33 250.31 Q 446.97 248.82 448.04 247.98 Q 449.11 247.15 450.38 246.81 Q 451.65 246.48 452.89 246.48 Q 453.68 246.48 454.71 246.66 Q 455.73 246.85 456.7 247.42 Q 457.66 248 458.3 249.16 Q 458.94 250.32 458.94 252.27 L 458.94 263.05 L 456.43 263.05 L 456.43 260.84 L 456.3 260.84 Q 456.04 261.37 455.45 261.98 Q 454.85 262.58 453.86 263.01 Q 452.87 263.44 451.44 263.44 Z M 451.82 261.18 Q 453.32 261.18 454.34 260.59 Q 455.37 260.01 455.9 259.08 Q 456.43 258.15 456.43 257.13 L 456.43 254.83 Q 456.27 255.02 455.73 255.17 Q 455.19 255.33 454.49 255.44 Q 453.8 255.55 453.14 255.63 Q 452.48 255.71 452.08 255.77 Q 451.1 255.89 450.25 256.18 Q 449.41 256.46 448.89 257.02 Q 448.37 257.58 448.37 258.53 Q 448.37 259.85 449.35 260.51 Q 450.32 261.18 451.82 261.18 Z M 466.06 241.23 L 466.06 263.05 L 463.55 263.05 L 463.55 241.23 Z M 479.1 263.05 L 479.1 246.69 L 481.62 246.69 L 481.62 263.05 Z M 480.38 243.96 Q 479.65 243.96 479.12 243.46 Q 478.59 242.96 478.59 242.26 Q 478.59 241.55 479.12 241.05 Q 479.65 240.55 480.38 240.55 Q 481.12 240.55 481.64 241.05 Q 482.17 241.55 482.17 242.26 Q 482.17 242.96 481.64 243.46 Q 481.12 243.96 480.38 243.96 Z M 492.87 263.39 Q 490.57 263.39 488.9 262.31 Q 487.24 261.22 486.35 259.31 Q 485.45 257.41 485.45 254.96 Q 485.45 252.46 486.37 250.55 Q 487.3 248.64 488.95 247.56 Q 490.61 246.48 492.82 246.48 Q 494.55 246.48 495.94 247.11 Q 497.32 247.75 498.2 248.9 Q 499.09 250.05 499.3 251.59 L 496.79 251.59 Q 496.5 250.47 495.51 249.6 Q 494.53 248.73 492.87 248.73 Q 491.4 248.73 490.29 249.5 Q 489.19 250.26 488.58 251.64 Q 487.97 253.02 487.97 254.87 Q 487.97 256.77 488.57 258.17 Q 489.17 259.58 490.27 260.36 Q 491.38 261.13 492.87 261.13 Q 493.85 261.13 494.65 260.79 Q 495.44 260.45 496 259.81 Q 496.55 259.17 496.79 258.28 L 499.3 258.28 Q 499.09 259.73 498.25 260.88 Q 497.42 262.04 496.05 262.72 Q 494.68 263.39 492.87 263.39 Z M 509.61 263.39 Q 507.39 263.39 505.73 262.34 Q 504.06 261.28 503.13 259.39 Q 502.19 257.49 502.19 254.96 Q 502.19 252.4 503.13 250.49 Q 504.06 248.58 505.73 247.53 Q 507.39 246.48 509.61 246.48 Q 511.82 246.48 513.49 247.53 Q 515.16 248.58 516.09 250.49 Q 517.02 252.4 517.02 254.96 Q 517.02 257.49 516.09 259.39 Q 515.16 261.28 513.49 262.34 Q 511.82 263.39 509.61 263.39 Z M 509.61 261.13 Q 511.29 261.13 512.38 260.27 Q 513.47 259.41 513.99 258 Q 514.51 256.6 514.51 254.96 Q 514.51 253.31 513.99 251.9 Q 513.47 250.48 512.38 249.61 Q 511.29 248.73 509.61 248.73 Q 507.93 248.73 506.84 249.61 Q 505.75 250.48 505.23 251.9 Q 504.71 253.31 504.71 254.96 Q 504.71 256.6 505.23 258 Q 505.75 259.41 506.84 260.27 Q 507.93 261.13 509.61 261.13 Z M 523.37 253.21 L 523.37 263.05 L 520.86 263.05 L 520.86 246.69 L 523.29 246.69 L 523.29 249.25 L 523.5 249.25 Q 524.08 248 525.25 247.24 Q 526.42 246.48 528.27 246.48 Q 529.94 246.48 531.18 247.15 Q 532.43 247.83 533.12 249.2 Q 533.81 250.57 533.81 252.65 L 533.81 263.05 L 531.3 263.05 L 531.3 252.82 Q 531.3 250.9 530.3 249.82 Q 529.3 248.73 527.55 248.73 Q 526.35 248.73 525.4 249.26 Q 524.46 249.78 523.92 250.78 Q 523.37 251.78 523.37 253.21 Z M 553.51 263.39 Q 551.21 263.39 549.54 262.31 Q 547.88 261.22 546.99 259.31 Q 546.09 257.41 546.09 254.96 Q 546.09 252.46 547.01 250.55 Q 547.94 248.64 549.59 247.56 Q 551.25 246.48 553.46 246.48 Q 555.19 246.48 556.58 247.11 Q 557.96 247.75 558.84 248.9 Q 559.73 250.05 559.94 251.59 L 557.43 251.59 Q 557.14 250.47 556.15 249.6 Q 555.17 248.73 553.51 248.73 Q 552.04 248.73 550.93 249.5 Q 549.83 250.26 549.22 251.64 Q 548.61 253.02 548.61 254.87 Q 548.61 256.77 549.21 258.17 Q 549.81 259.58 550.91 260.36 Q 552.02 261.13 553.51 261.13 Q 554.49 261.13 555.29 260.79 Q 556.09 260.45 556.64 259.81 Q 557.19 259.17 557.43 258.28 L 559.94 258.28 Q 559.73 259.73 558.89 260.88 Q 558.06 262.04 556.69 262.72 Q 555.32 263.39 553.51 263.39 Z M 570.25 263.39 Q 568.03 263.39 566.37 262.34 Q 564.7 261.28 563.77 259.39 Q 562.83 257.49 562.83 254.96 Q 562.83 252.4 563.77 250.49 Q 564.7 248.58 566.37 247.53 Q 568.03 246.48 570.25 246.48 Q 572.47 246.48 574.13 247.53 Q 575.8 248.58 576.73 250.49 Q 577.66 252.4 577.66 254.96 Q 577.66 257.49 576.73 259.39 Q 575.8 261.28 574.13 262.34 Q 572.47 263.39 570.25 263.39 Z M 570.25 261.13 Q 571.93 261.13 573.02 260.27 Q 574.11 259.41 574.63 258 Q 575.15 256.6 575.15 254.96 Q 575.15 253.31 574.63 251.9 Q 574.11 250.48 573.02 249.61 Q 571.93 248.73 570.25 248.73 Q 568.57 248.73 567.48 249.61 Q 566.39 250.48 565.87 251.9 Q 565.35 253.31 565.35 254.96 Q 565.35 256.6 565.87 258 Q 566.39 259.41 567.48 260.27 Q 568.57 261.13 570.25 261.13 Z M 581.5 263.05 L 581.5 246.69 L 583.93 246.69 L 583.93 249.25 L 584.14 249.25 Q 584.65 247.93 585.79 247.21 Q 586.93 246.48 588.53 246.48 Q 590.15 246.48 591.23 247.21 Q 592.31 247.93 592.92 249.25 L 593.09 249.25 Q 593.72 247.98 594.98 247.23 Q 596.23 246.48 597.99 246.48 Q 600.19 246.48 601.58 247.84 Q 602.98 249.21 602.98 252.1 L 602.98 263.05 L 600.46 263.05 L 600.46 252.1 Q 600.46 250.29 599.47 249.51 Q 598.48 248.73 597.14 248.73 Q 595.41 248.73 594.47 249.77 Q 593.52 250.81 593.52 252.4 L 593.52 263.05 L 590.96 263.05 L 590.96 251.84 Q 590.96 250.45 590.06 249.59 Q 589.15 248.73 587.72 248.73 Q 586.74 248.73 585.89 249.26 Q 585.05 249.78 584.53 250.7 Q 584.01 251.62 584.01 252.82 L 584.01 263.05 Z M 607.58 269.19 L 607.58 246.69 L 610.01 246.69 L 610.01 249.29 L 610.31 249.29 Q 610.58 248.86 611.08 248.2 Q 611.57 247.53 612.51 247 Q 613.44 246.48 615.04 246.48 Q 617.1 246.48 618.68 247.51 Q 620.26 248.54 621.14 250.44 Q 622.02 252.33 622.02 254.91 Q 622.02 257.51 621.14 259.41 Q 620.26 261.32 618.69 262.35 Q 617.12 263.39 615.08 263.39 Q 613.5 263.39 612.55 262.87 Q 611.61 262.34 611.09 261.66 Q 610.58 260.99 610.31 260.54 L 610.09 260.54 L 610.09 269.19 Z M 610.05 254.87 Q 610.05 256.72 610.59 258.14 Q 611.14 259.55 612.18 260.34 Q 613.22 261.13 614.74 261.13 Q 616.31 261.13 617.37 260.3 Q 618.43 259.46 618.97 258.04 Q 619.51 256.62 619.51 254.87 Q 619.51 253.14 618.98 251.75 Q 618.46 250.36 617.4 249.55 Q 616.34 248.73 614.74 248.73 Q 613.2 248.73 612.16 249.51 Q 611.12 250.28 610.58 251.66 Q 610.05 253.04 610.05 254.87 Z M 632.51 263.39 Q 630.29 263.39 628.62 262.34 Q 626.96 261.28 626.02 259.39 Q 625.09 257.49 625.09 254.96 Q 625.09 252.4 626.02 250.49 Q 626.96 248.58 628.62 247.53 Q 630.29 246.48 632.51 246.48 Q 634.72 246.48 636.39 247.53 Q 638.06 248.58 638.99 250.49 Q 639.92 252.4 639.92 254.96 Q 639.92 257.49 638.99 259.39 Q 638.06 261.28 636.39 262.34 Q 634.72 263.39 632.51 263.39 Z M 632.51 261.13 Q 634.19 261.13 635.28 260.27 Q 636.36 259.41 636.89 258 Q 637.41 256.6 637.41 254.96 Q 637.41 253.31 636.89 251.9 Q 636.36 250.48 635.28 249.61 Q 634.19 248.73 632.51 248.73 Q 630.82 248.73 629.74 249.61 Q 628.65 250.48 628.13 251.9 Q 627.61 253.31 627.61 254.96 Q 627.61 256.6 628.13 258 Q 628.65 259.41 629.74 260.27 Q 630.82 261.13 632.51 261.13 Z M 646.27 253.21 L 646.27 263.05 L 643.76 263.05 L 643.76 246.69 L 646.19 246.69 L 646.19 249.25 L 646.4 249.25 Q 646.98 248 648.15 247.24 Q 649.32 246.48 651.17 246.48 Q 652.83 246.48 654.08 247.15 Q 655.33 247.83 656.02 249.2 Q 656.71 250.57 656.71 252.65 L 656.71 263.05 L 654.2 263.05 L 654.2 252.82 Q 654.2 250.9 653.2 249.82 Q 652.2 248.73 650.45 248.73 Q 649.24 248.73 648.3 249.26 Q 647.36 249.78 646.82 250.78 Q 646.27 251.78 646.27 253.21 Z M 668.17 263.39 Q 665.81 263.39 664.1 262.34 Q 662.39 261.29 661.47 259.4 Q 660.55 257.51 660.55 255 Q 660.55 252.48 661.47 250.56 Q 662.39 248.64 664.05 247.56 Q 665.7 246.48 667.92 246.48 Q 669.2 246.48 670.44 246.9 Q 671.69 247.33 672.71 248.28 Q 673.73 249.23 674.34 250.8 Q 674.95 252.37 674.95 254.66 L 674.95 255.72 L 662.34 255.72 L 662.34 253.55 L 672.39 253.55 Q 672.39 252.16 671.84 251.08 Q 671.3 249.99 670.29 249.36 Q 669.28 248.73 667.92 248.73 Q 666.42 248.73 665.32 249.47 Q 664.23 250.21 663.65 251.4 Q 663.06 252.58 663.06 253.93 L 663.06 255.38 Q 663.06 257.24 663.7 258.52 Q 664.35 259.8 665.5 260.47 Q 666.65 261.13 668.17 261.13 Q 669.16 261.13 669.97 260.85 Q 670.77 260.57 671.36 260 Q 671.94 259.43 672.26 258.58 L 674.69 259.26 Q 674.31 260.5 673.4 261.43 Q 672.5 262.36 671.17 262.88 Q 669.84 263.39 668.17 263.39 Z M 681.3 253.21 L 681.3 263.05 L 678.79 263.05 L 678.79 246.69 L 681.22 246.69 L 681.22 249.25 L 681.43 249.25 Q 682.01 248 683.18 247.24 Q 684.35 246.48 686.2 246.48 Q 687.87 246.48 689.11 247.15 Q 690.36 247.83 691.05 249.2 Q 691.74 250.57 691.74 252.65 L 691.74 263.05 L 689.23 263.05 L 689.23 252.82 Q 689.23 250.9 688.23 249.82 Q 687.23 248.73 685.48 248.73 Q 684.28 248.73 683.33 249.26 Q 682.39 249.78 681.85 250.78 Q 681.3 251.78 681.3 253.21 Z M 703.46 246.69 L 703.46 248.82 L 694.98 248.82 L 694.98 246.69 Z M 697.45 242.77 L 699.97 242.77 L 699.97 258.36 Q 699.97 259.43 700.28 259.96 Q 700.59 260.48 701.09 260.66 Q 701.59 260.84 702.14 260.84 Q 702.56 260.84 702.82 260.79 Q 703.09 260.74 703.25 260.71 L 703.76 262.97 Q 703.5 263.06 703.05 263.16 Q 702.59 263.27 701.88 263.27 Q 700.82 263.27 699.8 262.81 Q 698.78 262.35 698.12 261.41 Q 697.45 260.47 697.45 259.05 Z M 722.97 246.69 L 722.97 248.82 L 714.15 248.82 L 714.15 246.69 Z M 716.8 263.05 L 716.8 244.43 Q 716.8 243.02 717.46 242.09 Q 718.12 241.15 719.17 240.68 Q 720.23 240.21 721.4 240.21 Q 722.32 240.21 722.91 240.36 Q 723.5 240.51 723.78 240.64 L 723.06 242.81 Q 722.87 242.75 722.53 242.65 Q 722.2 242.55 721.65 242.55 Q 720.41 242.55 719.86 243.18 Q 719.31 243.81 719.31 245.03 L 719.31 263.05 Z M 732.48 263.39 Q 730.27 263.39 728.6 262.34 Q 726.93 261.28 726 259.39 Q 725.07 257.49 725.07 254.96 Q 725.07 252.4 726 250.49 Q 726.93 248.58 728.6 247.53 Q 730.27 246.48 732.48 246.48 Q 734.7 246.48 736.37 247.53 Q 738.03 248.58 738.97 250.49 Q 739.9 252.4 739.9 254.96 Q 739.9 257.49 738.97 259.39 Q 738.03 261.28 736.37 262.34 Q 734.7 263.39 732.48 263.39 Z M 732.48 261.13 Q 734.17 261.13 735.25 260.27 Q 736.34 259.41 736.86 258 Q 737.38 256.6 737.38 254.96 Q 737.38 253.31 736.86 251.9 Q 736.34 250.48 735.25 249.61 Q 734.17 248.73 732.48 248.73 Q 730.8 248.73 729.71 249.61 Q 728.63 250.48 728.11 251.9 Q 727.58 253.31 727.58 254.96 Q 727.58 256.6 728.11 258 Q 728.63 259.41 729.71 260.27 Q 730.8 261.13 732.48 261.13 Z M 743.73 263.05 L 743.73 246.69 L 746.16 246.69 L 746.16 249.16 L 746.33 249.16 Q 746.78 247.95 747.95 247.19 Q 749.13 246.43 750.6 246.43 Q 750.87 246.43 751.29 246.44 Q 751.7 246.45 751.92 246.48 L 751.92 249.03 Q 751.79 249 751.34 248.93 Q 750.88 248.86 750.38 248.86 Q 749.19 248.86 748.26 249.36 Q 747.32 249.85 746.79 250.72 Q 746.25 251.59 746.25 252.7 L 746.25 263.05 Z M 763.68 263.05 L 763.68 241.23 L 766.32 241.23 L 766.32 260.71 L 776.46 260.71 L 776.46 263.05 Z M 785.03 263.44 Q 783.47 263.44 782.2 262.84 Q 780.94 262.25 780.19 261.13 Q 779.44 260.01 779.44 258.41 Q 779.44 257 780 256.12 Q 780.55 255.24 781.48 254.74 Q 782.41 254.24 783.53 253.99 Q 784.65 253.74 785.79 253.59 Q 787.29 253.4 788.22 253.3 Q 789.15 253.2 789.58 252.95 Q 790.01 252.71 790.01 252.1 L 790.01 252.02 Q 790.01 250.44 789.15 249.56 Q 788.3 248.69 786.56 248.69 Q 784.76 248.69 783.74 249.48 Q 782.71 250.27 782.3 251.16 L 779.91 250.31 Q 780.55 248.82 781.62 247.98 Q 782.69 247.15 783.97 246.81 Q 785.24 246.48 786.48 246.48 Q 787.26 246.48 788.29 246.66 Q 789.32 246.85 790.28 247.42 Q 791.25 248 791.89 249.16 Q 792.53 250.32 792.53 252.27 L 792.53 263.05 L 790.01 263.05 L 790.01 260.84 L 789.88 260.84 Q 789.63 261.37 789.03 261.98 Q 788.44 262.58 787.44 263.01 Q 786.45 263.44 785.03 263.44 Z M 785.41 261.18 Q 786.9 261.18 787.93 260.59 Q 788.96 260.01 789.49 259.08 Q 790.01 258.15 790.01 257.13 L 790.01 254.83 Q 789.85 255.02 789.31 255.17 Q 788.78 255.33 788.08 255.44 Q 787.38 255.55 786.73 255.63 Q 786.07 255.71 785.67 255.77 Q 784.69 255.89 783.84 256.18 Q 782.99 256.46 782.48 257.02 Q 781.96 257.58 781.96 258.53 Q 781.96 259.85 782.93 260.51 Q 783.91 261.18 785.41 261.18 Z M 797.13 263.05 L 797.13 246.69 L 799.55 246.69 L 799.55 249.16 L 799.72 249.16 Q 800.17 247.95 801.34 247.19 Q 802.52 246.43 803.99 246.43 Q 804.26 246.43 804.68 246.44 Q 805.09 246.45 805.31 246.48 L 805.31 249.03 Q 805.18 249 804.73 248.93 Q 804.27 248.86 803.77 248.86 Q 802.58 248.86 801.65 249.36 Q 800.72 249.85 800.18 250.72 Q 799.64 251.59 799.64 252.7 L 799.64 263.05 Z M 813.1 263.44 Q 811.55 263.44 810.28 262.84 Q 809.01 262.25 808.27 261.13 Q 807.52 260.01 807.52 258.41 Q 807.52 257 808.08 256.12 Q 808.63 255.24 809.56 254.74 Q 810.48 254.24 811.61 253.99 Q 812.73 253.74 813.87 253.59 Q 815.36 253.4 816.3 253.3 Q 817.23 253.2 817.66 252.95 Q 818.09 252.71 818.09 252.1 L 818.09 252.02 Q 818.09 250.44 817.23 249.56 Q 816.38 248.69 814.64 248.69 Q 812.84 248.69 811.82 249.48 Q 810.79 250.27 810.38 251.16 L 807.99 250.31 Q 808.63 248.82 809.7 247.98 Q 810.77 247.15 812.04 246.81 Q 813.32 246.48 814.55 246.48 Q 815.34 246.48 816.37 246.66 Q 817.4 246.85 818.36 247.42 Q 819.33 248 819.97 249.16 Q 820.6 250.32 820.6 252.27 L 820.6 263.05 L 818.09 263.05 L 818.09 260.84 L 817.96 260.84 Q 817.71 261.37 817.11 261.98 Q 816.51 262.58 815.52 263.01 Q 814.53 263.44 813.1 263.44 Z M 813.49 261.18 Q 814.98 261.18 816.01 260.59 Q 817.04 260.01 817.56 259.08 Q 818.09 258.15 818.09 257.13 L 818.09 254.83 Q 817.93 255.02 817.39 255.17 Q 816.85 255.33 816.16 255.44 Q 815.46 255.55 814.8 255.63 Q 814.15 255.71 813.74 255.77 Q 812.76 255.89 811.92 256.18 Q 811.07 256.46 810.55 257.02 Q 810.04 257.58 810.04 258.53 Q 810.04 259.85 811.01 260.51 Q 811.99 261.18 813.49 261.18 Z M 837.99 246.69 L 831.94 263.05 L 829.38 263.05 L 823.33 246.69 L 826.06 246.69 L 830.58 259.73 L 830.75 259.73 L 835.26 246.69 Z M 847.58 263.39 Q 845.21 263.39 843.5 262.34 Q 841.8 261.29 840.87 259.4 Q 839.95 257.51 839.95 255 Q 839.95 252.48 840.87 250.56 Q 841.8 248.64 843.45 247.56 Q 845.11 246.48 847.32 246.48 Q 848.6 246.48 849.85 246.9 Q 851.1 247.33 852.12 248.28 Q 853.14 249.23 853.75 250.8 Q 854.36 252.37 854.36 254.66 L 854.36 255.72 L 841.74 255.72 L 841.74 253.55 L 851.8 253.55 Q 851.8 252.16 851.25 251.08 Q 850.7 249.99 849.69 249.36 Q 848.69 248.73 847.32 248.73 Q 845.82 248.73 844.73 249.47 Q 843.64 250.21 843.05 251.4 Q 842.47 252.58 842.47 253.93 L 842.47 255.38 Q 842.47 257.24 843.11 258.52 Q 843.76 259.8 844.91 260.47 Q 846.06 261.13 847.58 261.13 Q 848.57 261.13 849.38 260.85 Q 850.18 260.57 850.77 260 Q 851.35 259.43 851.67 258.58 L 854.1 259.26 Q 853.72 260.5 852.81 261.43 Q 851.91 262.36 850.57 262.88 Q 849.24 263.39 847.58 263.39 Z M 860.7 241.23 L 860.7 263.05 L 858.19 263.05 L 858.19 241.23 Z" style="fill: rgb(223, 223, 223); text-wrap-mode: nowrap;"/><g transform="matrix(1, 0, 0, 1, -0.00006, -35.184666)"><path d="M 389.47 464.96 L 389.47 479.51 L 388.14 479.51 L 388.14 464.96 Z M 394.33 472.69 L 394.33 479.51 L 393.07 479.51 L 393.07 468.6 L 394.3 468.6 L 394.3 470.31 L 394.41 470.31 Q 394.79 469.47 395.61 468.96 Q 396.42 468.46 397.62 468.46 Q 398.72 468.46 399.55 468.91 Q 400.39 469.37 400.85 470.26 Q 401.32 471.15 401.32 472.44 L 401.32 479.51 L 400.06 479.51 L 400.06 472.52 Q 400.06 471.18 399.31 470.4 Q 398.56 469.61 397.3 469.61 Q 396.44 469.61 395.77 469.98 Q 395.1 470.35 394.72 471.05 Q 394.33 471.74 394.33 472.69 Z M 411.98 470.99 L 410.82 471.32 Q 410.65 470.83 410.34 470.43 Q 410.03 470.03 409.53 469.8 Q 409.03 469.56 408.29 469.56 Q 407.18 469.56 406.47 470.09 Q 405.76 470.62 405.76 471.45 Q 405.76 472.15 406.25 472.59 Q 406.73 473.02 407.75 473.28 L 409.4 473.68 Q 410.77 474.02 411.45 474.74 Q 412.14 475.47 412.14 476.56 Q 412.14 477.48 411.63 478.2 Q 411.12 478.92 410.2 479.33 Q 409.29 479.74 408.09 479.74 Q 406.49 479.74 405.46 479.01 Q 404.42 478.29 404.13 476.93 L 405.34 476.63 Q 405.58 477.6 406.26 478.1 Q 406.95 478.6 408.07 478.6 Q 409.33 478.6 410.08 478.03 Q 410.83 477.47 410.83 476.62 Q 410.83 475.96 410.39 475.51 Q 409.95 475.05 409.06 474.84 L 407.27 474.42 Q 405.85 474.07 405.17 473.34 Q 404.49 472.6 404.49 471.5 Q 404.49 470.6 404.98 469.92 Q 405.47 469.23 406.33 468.84 Q 407.19 468.45 408.29 468.45 Q 409.79 468.45 410.69 469.13 Q 411.58 469.81 411.98 470.99 Z M 419.21 468.6 L 419.21 469.7 L 414 469.7 L 414 468.6 Z M 415.63 465.99 L 416.9 465.99 L 416.9 476.66 Q 416.9 477.34 417.13 477.73 Q 417.37 478.12 417.74 478.28 Q 418.12 478.44 418.55 478.44 Q 418.8 478.44 418.97 478.4 Q 419.15 478.37 419.29 478.34 L 419.56 479.48 Q 419.37 479.55 419.1 479.61 Q 418.83 479.67 418.43 479.67 Q 417.74 479.67 417.09 479.37 Q 416.45 479.06 416.04 478.46 Q 415.63 477.85 415.63 476.96 Z M 425.13 479.76 Q 424.14 479.76 423.33 479.37 Q 422.51 478.98 422.03 478.25 Q 421.54 477.51 421.54 476.46 Q 421.54 475.65 421.85 475.1 Q 422.15 474.54 422.71 474.19 Q 423.28 473.83 424.04 473.63 Q 424.81 473.42 425.73 473.31 Q 426.65 473.19 427.28 473.11 Q 427.92 473.02 428.25 472.84 Q 428.59 472.65 428.59 472.24 L 428.59 471.99 Q 428.59 470.87 427.92 470.23 Q 427.26 469.59 426.02 469.59 Q 424.84 469.59 424.1 470.1 Q 423.35 470.62 423.06 471.33 L 421.85 470.89 Q 422.22 470 422.88 469.46 Q 423.53 468.93 424.34 468.69 Q 425.15 468.45 425.98 468.45 Q 426.61 468.45 427.28 468.61 Q 427.96 468.78 428.55 469.18 Q 429.13 469.58 429.49 470.29 Q 429.85 471.01 429.85 472.1 L 429.85 479.51 L 428.59 479.51 L 428.59 477.78 L 428.51 477.78 Q 428.28 478.27 427.83 478.72 Q 427.39 479.17 426.71 479.47 Q 426.04 479.76 425.13 479.76 Z M 425.3 478.6 Q 426.31 478.6 427.05 478.15 Q 427.79 477.7 428.19 476.96 Q 428.59 476.22 428.59 475.32 L 428.59 473.75 Q 428.45 473.88 428.12 473.99 Q 427.79 474.1 427.36 474.18 Q 426.93 474.26 426.5 474.32 Q 426.07 474.37 425.73 474.42 Q 424.81 474.53 424.16 474.77 Q 423.5 475.01 423.15 475.43 Q 422.81 475.86 422.81 476.52 Q 422.81 477.51 423.52 478.06 Q 424.23 478.6 425.3 478.6 Z M 434.47 472.69 L 434.47 479.51 L 433.21 479.51 L 433.21 468.6 L 434.44 468.6 L 434.44 470.31 L 434.55 470.31 Q 434.93 469.47 435.75 468.96 Q 436.56 468.46 437.76 468.46 Q 438.86 468.46 439.7 468.91 Q 440.53 469.37 440.99 470.26 Q 441.46 471.15 441.46 472.44 L 441.46 479.51 L 440.2 479.51 L 440.2 472.52 Q 440.2 471.18 439.45 470.4 Q 438.7 469.61 437.44 469.61 Q 436.58 469.61 435.91 469.98 Q 435.25 470.35 434.86 471.05 Q 434.47 471.74 434.47 472.69 Z M 449.1 468.6 L 449.1 469.7 L 443.89 469.7 L 443.89 468.6 Z M 445.52 465.99 L 446.79 465.99 L 446.79 476.66 Q 446.79 477.34 447.02 477.73 Q 447.26 478.12 447.63 478.28 Q 448.01 478.44 448.44 478.44 Q 448.69 478.44 448.86 478.4 Q 449.04 478.37 449.18 478.34 L 449.45 479.48 Q 449.26 479.55 448.99 479.61 Q 448.72 479.67 448.32 479.67 Q 447.63 479.67 446.98 479.37 Q 446.34 479.06 445.93 478.46 Q 445.52 477.85 445.52 476.96 Z M 460.64 479.76 Q 459.65 479.76 458.83 479.37 Q 458.02 478.98 457.53 478.25 Q 457.05 477.51 457.05 476.46 Q 457.05 475.65 457.36 475.1 Q 457.66 474.54 458.22 474.19 Q 458.78 473.83 459.55 473.63 Q 460.32 473.42 461.24 473.31 Q 462.16 473.19 462.79 473.11 Q 463.43 473.02 463.76 472.84 Q 464.1 472.65 464.1 472.24 L 464.1 471.99 Q 464.1 470.87 463.43 470.23 Q 462.77 469.59 461.52 469.59 Q 460.35 469.59 459.6 470.1 Q 458.86 470.62 458.56 471.33 L 457.36 470.89 Q 457.73 470 458.39 469.46 Q 459.04 468.93 459.85 468.69 Q 460.66 468.45 461.49 468.45 Q 462.11 468.45 462.79 468.61 Q 463.47 468.78 464.05 469.18 Q 464.64 469.58 465 470.29 Q 465.36 471.01 465.36 472.1 L 465.36 479.51 L 464.1 479.51 L 464.1 477.78 L 464.02 477.78 Q 463.79 478.27 463.34 478.72 Q 462.9 479.17 462.22 479.47 Q 461.55 479.76 460.64 479.76 Z M 460.81 478.6 Q 461.82 478.6 462.55 478.15 Q 463.29 477.7 463.69 476.96 Q 464.1 476.22 464.1 475.32 L 464.1 473.75 Q 463.95 473.88 463.62 473.99 Q 463.29 474.1 462.86 474.18 Q 462.43 474.26 462.01 474.32 Q 461.58 474.37 461.24 474.42 Q 460.32 474.53 459.66 474.77 Q 459.01 475.01 458.66 475.43 Q 458.31 475.86 458.31 476.52 Q 458.31 477.51 459.02 478.06 Q 459.73 478.6 460.81 478.6 Z M 472.98 479.74 Q 471.51 479.74 470.43 479 Q 469.35 478.27 468.75 477 Q 468.15 475.73 468.15 474.1 Q 468.15 472.46 468.76 471.18 Q 469.37 469.91 470.45 469.18 Q 471.53 468.45 472.96 468.45 Q 474.05 468.45 474.94 468.87 Q 475.82 469.29 476.4 470.06 Q 476.98 470.82 477.13 471.84 L 475.85 471.84 Q 475.65 470.91 474.9 470.26 Q 474.14 469.6 472.98 469.6 Q 471.93 469.6 471.13 470.16 Q 470.33 470.73 469.88 471.73 Q 469.43 472.74 469.43 474.06 Q 469.43 475.39 469.87 476.41 Q 470.31 477.43 471.1 478 Q 471.9 478.58 472.98 478.58 Q 473.7 478.58 474.3 478.3 Q 474.9 478.03 475.31 477.53 Q 475.72 477.02 475.86 476.33 L 477.14 476.33 Q 477 477.31 476.44 478.08 Q 475.88 478.85 475 479.29 Q 474.11 479.74 472.98 479.74 Z M 484.11 479.74 Q 482.65 479.74 481.56 479 Q 480.48 478.27 479.88 477 Q 479.29 475.73 479.29 474.1 Q 479.29 472.46 479.89 471.18 Q 480.5 469.91 481.58 469.18 Q 482.66 468.45 484.09 468.45 Q 485.18 468.45 486.07 468.87 Q 486.96 469.29 487.54 470.06 Q 488.11 470.82 488.26 471.84 L 486.99 471.84 Q 486.79 470.91 486.03 470.26 Q 485.27 469.6 484.11 469.6 Q 483.07 469.6 482.26 470.16 Q 481.46 470.73 481.01 471.73 Q 480.56 472.74 480.56 474.06 Q 480.56 475.39 481 476.41 Q 481.44 477.43 482.24 478 Q 483.04 478.58 484.11 478.58 Q 484.83 478.58 485.43 478.3 Q 486.03 478.03 486.44 477.53 Q 486.85 477.02 486.99 476.33 L 488.27 476.33 Q 488.13 477.31 487.57 478.08 Q 487.01 478.85 486.13 479.29 Q 485.25 479.74 484.11 479.74 Z M 495.38 479.74 Q 493.86 479.74 492.74 479.02 Q 491.63 478.31 491.02 477.04 Q 490.41 475.77 490.41 474.12 Q 490.41 472.47 491.02 471.19 Q 491.63 469.91 492.7 469.18 Q 493.78 468.45 495.19 468.45 Q 496.08 468.45 496.9 468.77 Q 497.73 469.1 498.38 469.76 Q 499.04 470.42 499.42 471.43 Q 499.81 472.43 499.81 473.8 L 499.81 474.43 L 491.29 474.43 L 491.29 473.31 L 498.52 473.31 Q 498.52 472.26 498.09 471.42 Q 497.67 470.58 496.92 470.09 Q 496.17 469.6 495.19 469.6 Q 494.15 469.6 493.37 470.15 Q 492.58 470.71 492.13 471.62 Q 491.69 472.53 491.68 473.61 L 491.68 474.27 Q 491.68 475.57 492.13 476.54 Q 492.58 477.51 493.42 478.04 Q 494.25 478.58 495.38 478.58 Q 496.16 478.58 496.74 478.34 Q 497.33 478.09 497.73 477.69 Q 498.13 477.28 498.34 476.79 L 499.54 477.18 Q 499.29 477.87 498.72 478.45 Q 498.16 479.03 497.32 479.38 Q 496.48 479.74 495.38 479.74 Z M 509.91 470.99 L 508.75 471.32 Q 508.58 470.83 508.27 470.43 Q 507.96 470.03 507.46 469.8 Q 506.96 469.56 506.22 469.56 Q 505.11 469.56 504.4 470.09 Q 503.69 470.62 503.69 471.45 Q 503.69 472.15 504.18 472.59 Q 504.66 473.02 505.68 473.28 L 507.33 473.68 Q 508.7 474.02 509.38 474.74 Q 510.07 475.47 510.07 476.56 Q 510.07 477.48 509.56 478.2 Q 509.05 478.92 508.13 479.33 Q 507.22 479.74 506.02 479.74 Q 504.42 479.74 503.38 479.01 Q 502.35 478.29 502.06 476.93 L 503.27 476.63 Q 503.51 477.6 504.19 478.1 Q 504.88 478.6 506 478.6 Q 507.26 478.6 508.01 478.03 Q 508.76 477.47 508.76 476.62 Q 508.76 475.96 508.32 475.51 Q 507.88 475.05 506.99 474.84 L 505.2 474.42 Q 503.78 474.07 503.1 473.34 Q 502.42 472.6 502.42 471.5 Q 502.42 470.6 502.91 469.92 Q 503.4 469.23 504.26 468.84 Q 505.12 468.45 506.22 468.45 Q 507.72 468.45 508.62 469.13 Q 509.51 469.81 509.91 470.99 Z M 520.17 470.99 L 519.01 471.32 Q 518.84 470.83 518.53 470.43 Q 518.22 470.03 517.72 469.8 Q 517.21 469.56 516.48 469.56 Q 515.37 469.56 514.66 470.09 Q 513.95 470.62 513.95 471.45 Q 513.95 472.15 514.43 472.59 Q 514.92 473.02 515.94 473.28 L 517.58 473.68 Q 518.96 474.02 519.64 474.74 Q 520.33 475.47 520.33 476.56 Q 520.33 477.48 519.81 478.2 Q 519.3 478.92 518.39 479.33 Q 517.48 479.74 516.28 479.74 Q 514.68 479.74 513.64 479.01 Q 512.61 478.29 512.31 476.93 L 513.53 476.63 Q 513.76 477.6 514.45 478.1 Q 515.13 478.6 516.26 478.6 Q 517.51 478.6 518.27 478.03 Q 519.02 477.47 519.02 476.62 Q 519.02 475.96 518.58 475.51 Q 518.14 475.05 517.24 474.84 L 515.46 474.42 Q 514.04 474.07 513.36 473.34 Q 512.68 472.6 512.68 471.5 Q 512.68 470.6 513.17 469.92 Q 513.66 469.23 514.52 468.84 Q 515.38 468.45 516.48 468.45 Q 517.97 468.45 518.87 469.13 Q 519.77 469.81 520.17 470.99 Z M 533.01 468.6 L 533.01 469.7 L 527.81 469.7 L 527.81 468.6 Z M 529.43 465.99 L 530.7 465.99 L 530.7 476.66 Q 530.7 477.34 530.94 477.73 Q 531.17 478.12 531.55 478.28 Q 531.93 478.44 532.35 478.44 Q 532.6 478.44 532.78 478.4 Q 532.95 478.37 533.09 478.34 L 533.36 479.48 Q 533.18 479.55 532.91 479.61 Q 532.64 479.67 532.24 479.67 Q 531.54 479.67 530.9 479.37 Q 530.26 479.06 529.84 478.46 Q 529.43 477.85 529.43 476.96 Z M 540.01 479.74 Q 538.6 479.74 537.51 479.02 Q 536.43 478.3 535.82 477.03 Q 535.21 475.77 535.21 474.1 Q 535.21 472.43 535.82 471.15 Q 536.43 469.88 537.51 469.16 Q 538.6 468.45 540.01 468.45 Q 541.42 468.45 542.5 469.17 Q 543.58 469.88 544.2 471.16 Q 544.81 472.43 544.81 474.1 Q 544.81 475.77 544.2 477.03 Q 543.59 478.3 542.51 479.02 Q 541.42 479.74 540.01 479.74 Z M 540.01 478.58 Q 541.15 478.58 541.93 477.97 Q 542.72 477.36 543.13 476.34 Q 543.54 475.32 543.54 474.1 Q 543.54 472.88 543.13 471.86 Q 542.72 470.84 541.93 470.22 Q 541.15 469.6 540.01 469.6 Q 538.88 469.6 538.09 470.22 Q 537.3 470.84 536.89 471.86 Q 536.48 472.88 536.48 474.1 Q 536.48 475.32 536.89 476.34 Q 537.3 477.36 538.08 477.97 Q 538.87 478.58 540.01 478.58 Z M 553.17 479.51 L 553.17 478.53 L 557.92 473.19 Q 558.85 472.14 559.42 471.4 Q 559.98 470.65 560.24 470.02 Q 560.5 469.39 560.5 468.71 Q 560.5 467.87 560.11 467.25 Q 559.73 466.63 559.05 466.28 Q 558.38 465.94 557.53 465.94 Q 556.64 465.94 555.97 466.32 Q 555.3 466.7 554.93 467.37 Q 554.56 468.04 554.56 468.9 L 553.29 468.9 Q 553.29 467.7 553.84 466.76 Q 554.4 465.83 555.37 465.3 Q 556.34 464.76 557.57 464.76 Q 558.78 464.76 559.73 465.29 Q 560.67 465.81 561.21 466.7 Q 561.75 467.6 561.75 468.71 Q 561.75 469.51 561.47 470.26 Q 561.19 471.01 560.51 471.94 Q 559.83 472.86 558.62 474.2 L 555.01 478.22 L 555.01 478.31 L 562.21 478.31 L 562.21 479.51 Z M 569.89 479.71 Q 568.36 479.71 567.28 478.82 Q 566.19 477.94 565.61 476.26 Q 565.04 474.59 565.04 472.24 Q 565.04 469.89 565.61 468.22 Q 566.19 466.55 567.28 465.66 Q 568.37 464.76 569.89 464.76 Q 571.41 464.76 572.5 465.66 Q 573.59 466.55 574.17 468.22 Q 574.75 469.89 574.75 472.24 Q 574.75 474.59 574.17 476.26 Q 573.59 477.94 572.51 478.82 Q 571.43 479.71 569.89 479.71 Z M 569.89 478.51 Q 571.58 478.51 572.52 476.87 Q 573.47 475.23 573.47 472.24 Q 573.47 470.25 573.04 468.84 Q 572.61 467.43 571.81 466.68 Q 571.01 465.94 569.89 465.94 Q 568.22 465.94 567.27 467.59 Q 566.32 469.25 566.32 472.24 Q 566.32 474.22 566.75 475.63 Q 567.18 477.04 567.98 477.78 Q 568.78 478.51 569.89 478.51 Z M 582.16 479.71 Q 580.62 479.71 579.54 478.82 Q 578.46 477.94 577.88 476.26 Q 577.3 474.59 577.3 472.24 Q 577.3 469.89 577.88 468.22 Q 578.46 466.55 579.55 465.66 Q 580.64 464.76 582.16 464.76 Q 583.68 464.76 584.77 465.66 Q 585.86 466.55 586.44 468.22 Q 587.02 469.89 587.02 472.24 Q 587.02 474.59 586.44 476.26 Q 585.86 477.94 584.78 478.82 Q 583.69 479.71 582.16 479.71 Z M 582.16 478.51 Q 583.84 478.51 584.79 476.87 Q 585.73 475.23 585.73 472.24 Q 585.73 470.25 585.3 468.84 Q 584.87 467.43 584.07 466.68 Q 583.27 465.94 582.16 465.94 Q 580.49 465.94 579.54 467.59 Q 578.59 469.25 578.59 472.24 Q 578.59 474.22 579.02 475.63 Q 579.45 477.04 580.24 477.78 Q 581.04 478.51 582.16 478.51 Z M 591.04 464.96 L 591.04 469.81 L 589.85 469.81 L 589.85 464.96 Z M 598.75 479.71 Q 597.22 479.71 596.14 478.82 Q 595.05 477.94 594.47 476.26 Q 593.89 474.59 593.89 472.24 Q 593.89 469.89 594.47 468.22 Q 595.05 466.55 596.14 465.66 Q 597.23 464.76 598.75 464.76 Q 600.27 464.76 601.36 465.66 Q 602.45 466.55 603.03 468.22 Q 603.61 469.89 603.61 472.24 Q 603.61 474.59 603.03 476.26 Q 602.45 477.94 601.37 478.82 Q 600.29 479.71 598.75 479.71 Z M 598.75 478.51 Q 600.44 478.51 601.38 476.87 Q 602.33 475.23 602.33 472.24 Q 602.33 470.25 601.9 468.84 Q 601.47 467.43 600.67 466.68 Q 599.87 465.94 598.75 465.94 Q 597.08 465.94 596.13 467.59 Q 595.18 469.25 595.18 472.24 Q 595.18 474.22 595.61 475.63 Q 596.04 477.04 596.84 477.78 Q 597.64 478.51 598.75 478.51 Z M 611.03 479.71 Q 609.49 479.71 608.41 478.82 Q 607.33 477.94 606.75 476.26 Q 606.17 474.59 606.17 472.24 Q 606.17 469.89 606.75 468.22 Q 607.33 466.55 608.42 465.66 Q 609.51 464.76 611.03 464.76 Q 612.55 464.76 613.64 465.66 Q 614.73 466.55 615.31 468.22 Q 615.88 469.89 615.88 472.24 Q 615.88 474.59 615.31 476.26 Q 614.73 477.94 613.64 478.82 Q 612.56 479.71 611.03 479.71 Z M 611.03 478.51 Q 612.71 478.51 613.65 476.87 Q 614.6 475.23 614.6 472.24 Q 614.6 470.25 614.17 468.84 Q 613.74 467.43 612.94 466.68 Q 612.14 465.94 611.03 465.94 Q 609.36 465.94 608.41 467.59 Q 607.45 469.25 607.45 472.24 Q 607.45 474.22 607.88 475.63 Q 608.31 477.04 609.11 477.78 Q 609.91 478.51 611.03 478.51 Z M 623.3 479.71 Q 621.77 479.71 620.68 478.82 Q 619.6 477.94 619.02 476.26 Q 618.44 474.59 618.44 472.24 Q 618.44 469.89 619.02 468.22 Q 619.6 466.55 620.69 465.66 Q 621.78 464.76 623.3 464.76 Q 624.82 464.76 625.91 465.66 Q 627 466.55 627.58 468.22 Q 628.16 469.89 628.16 472.24 Q 628.16 474.59 627.58 476.26 Q 627 477.94 625.92 478.82 Q 624.83 479.71 623.3 479.71 Z M 623.3 478.51 Q 624.98 478.51 625.93 476.87 Q 626.87 475.23 626.87 472.24 Q 626.87 470.25 626.44 468.84 Q 626.01 467.43 625.21 466.68 Q 624.41 465.94 623.3 465.94 Q 621.63 465.94 620.68 467.59 Q 619.73 469.25 619.73 472.24 Q 619.73 474.22 620.16 475.63 Q 620.59 477.04 621.39 477.78 Q 622.18 478.51 623.3 478.51 Z M 635.35 476.75 L 635.35 467.75 L 636.56 467.75 L 636.56 476.75 Z M 631.45 472.86 L 631.45 471.65 L 640.45 471.65 L 640.45 472.86 Z M 649.78 479.51 L 649.78 468.6 L 651.05 468.6 L 651.05 479.51 Z M 650.42 466.72 Q 650.03 466.72 649.75 466.46 Q 649.48 466.19 649.48 465.81 Q 649.48 465.44 649.76 465.17 Q 650.04 464.91 650.42 464.91 Q 650.81 464.91 651.09 465.17 Q 651.37 465.44 651.37 465.81 Q 651.37 466.19 651.09 466.46 Q 650.81 466.72 650.42 466.72 Z M 658.66 479.74 Q 657.2 479.74 656.12 479 Q 655.03 478.27 654.44 477 Q 653.84 475.73 653.84 474.1 Q 653.84 472.46 654.45 471.18 Q 655.06 469.91 656.14 469.18 Q 657.21 468.45 658.64 468.45 Q 659.74 468.45 660.62 468.87 Q 661.51 469.29 662.09 470.06 Q 662.67 470.82 662.82 471.84 L 661.54 471.84 Q 661.34 470.91 660.58 470.26 Q 659.83 469.6 658.66 469.6 Q 657.62 469.6 656.82 470.16 Q 656.01 470.73 655.56 471.73 Q 655.11 472.74 655.11 474.06 Q 655.11 475.39 655.55 476.41 Q 655.99 477.43 656.79 478 Q 657.59 478.58 658.66 478.58 Q 659.39 478.58 659.99 478.3 Q 660.59 478.03 661 477.53 Q 661.41 477.02 661.55 476.33 L 662.83 476.33 Q 662.68 477.31 662.13 478.08 Q 661.57 478.85 660.68 479.29 Q 659.8 479.74 658.66 479.74 Z M 669.77 479.74 Q 668.35 479.74 667.27 479.02 Q 666.19 478.3 665.58 477.03 Q 664.97 475.77 664.97 474.1 Q 664.97 472.43 665.58 471.15 Q 666.19 469.88 667.27 469.16 Q 668.35 468.45 669.77 468.45 Q 671.18 468.45 672.26 469.17 Q 673.34 469.88 673.95 471.16 Q 674.57 472.43 674.57 474.1 Q 674.57 475.77 673.96 477.03 Q 673.35 478.3 672.26 479.02 Q 671.18 479.74 669.77 479.74 Z M 669.77 478.58 Q 670.9 478.58 671.69 477.97 Q 672.48 477.36 672.89 476.34 Q 673.3 475.32 673.3 474.1 Q 673.3 472.88 672.89 471.86 Q 672.48 470.84 671.69 470.22 Q 670.9 469.6 669.77 469.6 Q 668.64 469.6 667.85 470.22 Q 667.05 470.84 666.65 471.86 Q 666.24 472.88 666.24 474.1 Q 666.24 475.32 666.65 476.34 Q 667.05 477.36 667.84 477.97 Q 668.63 478.58 669.77 478.58 Z M 678.61 472.69 L 678.61 479.51 L 677.35 479.51 L 677.35 468.6 L 678.58 468.6 L 678.58 470.31 L 678.69 470.31 Q 679.07 469.47 679.89 468.96 Q 680.7 468.46 681.9 468.46 Q 683 468.46 683.84 468.91 Q 684.67 469.37 685.14 470.26 Q 685.6 471.15 685.6 472.44 L 685.6 479.51 L 684.34 479.51 L 684.34 472.52 Q 684.34 471.18 683.59 470.4 Q 682.84 469.61 681.58 469.61 Q 680.72 469.61 680.05 469.98 Q 679.39 470.35 679 471.05 Q 678.61 471.74 678.61 472.69 Z M 696.26 470.99 L 695.11 471.32 Q 694.94 470.83 694.62 470.43 Q 694.31 470.03 693.81 469.8 Q 693.31 469.56 692.57 469.56 Q 691.46 469.56 690.75 470.09 Q 690.04 470.62 690.04 471.45 Q 690.04 472.15 690.53 472.59 Q 691.01 473.02 692.03 473.28 L 693.68 473.68 Q 695.05 474.02 695.73 474.74 Q 696.42 475.47 696.42 476.56 Q 696.42 477.48 695.91 478.2 Q 695.4 478.92 694.48 479.33 Q 693.57 479.74 692.37 479.74 Q 690.77 479.74 689.74 479.01 Q 688.7 478.29 688.41 476.93 L 689.62 476.63 Q 689.86 477.6 690.54 478.1 Q 691.23 478.6 692.35 478.6 Q 693.61 478.6 694.36 478.03 Q 695.11 477.47 695.11 476.62 Q 695.11 475.96 694.67 475.51 Q 694.23 475.05 693.34 474.84 L 691.55 474.42 Q 690.13 474.07 689.45 473.34 Q 688.77 472.6 688.77 471.5 Q 688.77 470.6 689.26 469.92 Q 689.75 469.23 690.61 468.84 Q 691.47 468.45 692.57 468.45 Q 694.07 468.45 694.97 469.13 Q 695.87 469.81 696.26 470.99 Z M 709.31 468.6 L 709.31 469.7 L 703.94 469.7 L 703.94 468.6 Z M 705.62 479.51 L 705.62 467 Q 705.62 466.12 706.03 465.52 Q 706.44 464.91 707.1 464.6 Q 707.76 464.29 708.5 464.29 Q 708.99 464.29 709.32 464.37 Q 709.65 464.45 709.84 464.53 L 709.48 465.64 Q 709.33 465.59 709.13 465.54 Q 708.92 465.48 708.61 465.48 Q 707.79 465.48 707.34 465.94 Q 706.89 466.4 706.89 467.26 L 706.88 479.51 Z M 711.83 479.51 L 711.83 468.6 L 713.06 468.6 L 713.06 470.28 L 713.15 470.28 Q 713.48 469.45 714.29 468.94 Q 715.11 468.44 716.14 468.44 Q 716.29 468.44 716.48 468.44 Q 716.68 468.45 716.8 468.46 L 716.8 469.74 Q 716.72 469.73 716.51 469.7 Q 716.29 469.67 716.04 469.67 Q 715.19 469.67 714.53 470.03 Q 713.86 470.39 713.48 471.02 Q 713.1 471.65 713.1 472.46 L 713.1 479.51 Z M 722.86 479.74 Q 721.45 479.74 720.36 479.02 Q 719.28 478.3 718.67 477.03 Q 718.06 475.77 718.06 474.1 Q 718.06 472.43 718.67 471.15 Q 719.28 469.88 720.36 469.16 Q 721.45 468.45 722.86 468.45 Q 724.27 468.45 725.35 469.17 Q 726.43 469.88 727.05 471.16 Q 727.66 472.43 727.66 474.1 Q 727.66 475.77 727.05 477.03 Q 726.44 478.3 725.36 479.02 Q 724.27 479.74 722.86 479.74 Z M 722.86 478.58 Q 724 478.58 724.79 477.97 Q 725.57 477.36 725.98 476.34 Q 726.39 475.32 726.39 474.1 Q 726.39 472.88 725.98 471.86 Q 725.57 470.84 724.79 470.22 Q 724 469.6 722.86 469.6 Q 721.73 469.6 720.94 470.22 Q 720.15 470.84 719.74 471.86 Q 719.33 472.88 719.33 474.1 Q 719.33 475.32 719.74 476.34 Q 720.15 477.36 720.94 477.97 Q 721.72 478.58 722.86 478.58 Z M 730.44 479.51 L 730.44 468.6 L 731.67 468.6 L 731.67 470.28 L 731.78 470.28 Q 732.11 469.43 732.87 468.94 Q 733.64 468.46 734.71 468.46 Q 735.84 468.46 736.57 468.99 Q 737.3 469.52 737.66 470.44 L 737.75 470.44 Q 738.12 469.53 738.95 468.99 Q 739.79 468.46 740.98 468.46 Q 742.5 468.46 743.38 469.41 Q 744.26 470.37 744.26 472.2 L 744.26 479.51 L 743 479.51 L 743 472.2 Q 743 470.91 742.34 470.26 Q 741.68 469.61 740.6 469.61 Q 739.35 469.61 738.67 470.38 Q 738 471.15 738 472.33 L 738 479.51 L 736.71 479.51 L 736.71 472.09 Q 736.71 470.98 736.09 470.3 Q 735.47 469.61 734.35 469.61 Q 733.59 469.61 732.99 469.98 Q 732.39 470.35 732.05 471.01 Q 731.71 471.67 731.71 472.52 L 731.71 479.51 Z M 754.81 464.96 L 754.81 479.51 L 753.49 479.51 L 753.49 464.96 Z M 762.68 479.74 Q 761.22 479.74 760.13 479 Q 759.05 478.27 758.45 477 Q 757.86 475.73 757.86 474.1 Q 757.86 472.46 758.46 471.18 Q 759.07 469.91 760.15 469.18 Q 761.23 468.45 762.66 468.45 Q 763.75 468.45 764.64 468.87 Q 765.53 469.29 766.11 470.06 Q 766.69 470.82 766.83 471.84 L 765.56 471.84 Q 765.36 470.91 764.6 470.26 Q 763.84 469.6 762.68 469.6 Q 761.64 469.6 760.83 470.16 Q 760.03 470.73 759.58 471.73 Q 759.13 472.74 759.13 474.06 Q 759.13 475.39 759.57 476.41 Q 760.01 477.43 760.81 478 Q 761.61 478.58 762.68 478.58 Q 763.4 478.58 764 478.3 Q 764.6 478.03 765.01 477.53 Q 765.42 477.02 765.56 476.33 L 766.84 476.33 Q 766.7 477.31 766.14 478.08 Q 765.58 478.85 764.7 479.29 Q 763.82 479.74 762.68 479.74 Z M 773.78 479.74 Q 772.37 479.74 771.29 479.02 Q 770.2 478.3 769.59 477.03 Q 768.98 475.77 768.98 474.1 Q 768.98 472.43 769.59 471.15 Q 770.2 469.88 771.29 469.16 Q 772.37 468.45 773.78 468.45 Q 775.2 468.45 776.28 469.17 Q 777.36 469.88 777.97 471.16 Q 778.58 472.43 778.58 474.1 Q 778.58 475.77 777.97 477.03 Q 777.36 478.3 776.28 479.02 Q 775.2 479.74 773.78 479.74 Z M 773.78 478.58 Q 774.92 478.58 775.71 477.97 Q 776.5 477.36 776.9 476.34 Q 777.31 475.32 777.31 474.1 Q 777.31 472.88 776.9 471.86 Q 776.5 470.84 775.71 470.22 Q 774.92 469.6 773.78 469.6 Q 772.65 469.6 771.86 470.22 Q 771.07 470.84 770.66 471.86 Q 770.25 472.88 770.25 474.1 Q 770.25 475.32 770.66 476.34 Q 771.07 477.36 771.86 477.97 Q 772.65 478.58 773.78 478.58 Z M 782.63 472.69 L 782.63 479.51 L 781.36 479.51 L 781.36 468.6 L 782.59 468.6 L 782.59 470.31 L 782.71 470.31 Q 783.09 469.47 783.9 468.96 Q 784.72 468.46 785.92 468.46 Q 787.02 468.46 787.85 468.91 Q 788.69 469.37 789.15 470.26 Q 789.62 471.15 789.62 472.44 L 789.62 479.51 L 788.35 479.51 L 788.35 472.52 Q 788.35 471.18 787.6 470.4 Q 786.85 469.61 785.6 469.61 Q 784.74 469.61 784.07 469.98 Q 783.4 470.35 783.01 471.05 Q 782.63 471.74 782.63 472.69 Z M 792.96 479.51 L 792.96 468.6 L 794.23 468.6 L 794.23 479.51 Z M 793.61 466.72 Q 793.22 466.72 792.94 466.46 Q 792.67 466.19 792.67 465.81 Q 792.67 465.44 792.94 465.17 Q 793.22 464.91 793.61 464.91 Q 794 464.91 794.28 465.17 Q 794.55 465.44 794.55 465.81 Q 794.55 466.19 794.28 466.46 Q 794 466.72 793.61 466.72 Z M 802.08 468.6 L 802.08 469.7 L 796.72 469.7 L 796.72 468.6 Z M 798.39 479.51 L 798.39 467 Q 798.39 466.12 798.8 465.52 Q 799.21 464.91 799.87 464.6 Q 800.53 464.29 801.27 464.29 Q 801.77 464.29 802.1 464.37 Q 802.43 464.45 802.62 464.53 L 802.25 465.64 Q 802.11 465.59 801.9 465.54 Q 801.7 465.48 801.38 465.48 Q 800.56 465.48 800.11 465.94 Q 799.66 466.4 799.66 467.26 L 799.66 479.51 Z M 805.49 483.6 Q 805.11 483.6 804.78 483.53 Q 804.46 483.46 804.26 483.37 L 804.61 482.26 Q 805.25 482.46 805.76 482.4 Q 806.26 482.35 806.65 481.95 Q 807.04 481.55 807.35 480.72 L 807.74 479.61 L 803.73 468.6 L 805.1 468.6 L 808.34 477.84 L 808.44 477.84 L 811.68 468.6 L 813.05 468.6 L 808.43 481.23 Q 808.14 482.02 807.72 482.55 Q 807.29 483.08 806.73 483.34 Q 806.18 483.6 805.49 483.6 Z" style="fill: rgb(240, 129, 175); text-wrap-mode: nowrap;"/><g transform="matrix(0.92599, 0, 0, 0.92599, 41.828148, -82.711868)" style=""><rect style="stroke: rgb(240, 128, 175); stroke-linecap: round; fill: rgba(240, 128, 175, 0.12); stroke-width: 2.15985px;" x="352.367" y="484.192" width="500.834" height="87.003" rx="10" ry="10"/><path d="M 433.11 533.49 L 424.51 529.19 L 424.51 527.19 L 433.11 522.89 L 433.11 524.63 L 426.91 527.67 Q 426.53 527.85 426.2 527.98 Q 425.87 528.11 425.71 528.15 Q 425.89 528.19 426.23 528.32 Q 426.57 528.45 426.91 528.63 L 433.11 531.69 Z" style="fill: rgb(223, 223, 223); text-wrap-mode: nowrap;"/><path d="M 435.81 534.79 L 439.71 529.13 L 436.05 523.79 L 438.17 523.79 L 440.35 527.19 Q 440.49 527.41 440.62 527.67 Q 440.75 527.93 440.83 528.09 Q 440.89 527.93 441.02 527.67 Q 441.15 527.41 441.29 527.19 L 443.47 523.79 L 445.59 523.79 L 441.93 529.15 L 445.81 534.79 L 443.69 534.79 L 441.33 531.19 Q 441.19 530.97 441.06 530.68 Q 440.93 530.39 440.83 530.21 Q 440.75 530.39 440.6 530.68 Q 440.45 530.97 440.29 531.19 L 437.93 534.79 Z M 449.6 528.99 L 449.6 527.39 L 456 527.39 L 456 528.99 Z M 460.49 534.79 L 460.49 533.15 L 464.39 533.15 L 464.39 525.43 L 460.89 525.43 L 460.89 523.79 L 466.19 523.79 L 466.19 533.15 L 469.89 533.15 L 469.89 534.79 Z M 465.09 521.81 Q 464.43 521.81 464.05 521.47 Q 463.67 521.13 463.67 520.55 Q 463.67 519.95 464.05 519.6 Q 464.43 519.25 465.09 519.25 Q 465.75 519.25 466.13 519.6 Q 466.51 519.95 466.51 520.55 Q 466.51 521.13 466.13 521.47 Q 465.75 521.81 465.09 521.81 Z M 476.95 534.99 Q 475.63 534.99 474.64 534.49 Q 473.65 533.99 473.1 533.04 Q 472.55 532.09 472.55 530.79 L 472.55 527.79 Q 472.55 526.47 473.1 525.53 Q 473.65 524.59 474.64 524.09 Q 475.63 523.59 476.95 523.59 Q 478.85 523.59 480.02 524.61 Q 481.19 525.63 481.25 527.39 L 479.45 527.39 Q 479.39 526.33 478.73 525.76 Q 478.07 525.19 476.95 525.19 Q 475.77 525.19 475.06 525.86 Q 474.35 526.53 474.35 527.77 L 474.35 530.79 Q 474.35 532.03 475.06 532.71 Q 475.77 533.39 476.95 533.39 Q 478.07 533.39 478.73 532.81 Q 479.39 532.23 479.45 531.19 L 481.25 531.19 Q 481.19 532.95 480.02 533.97 Q 478.85 534.99 476.95 534.99 Z M 488.79 534.95 Q 487.47 534.95 486.5 534.43 Q 485.53 533.91 485 532.92 Q 484.47 531.93 484.47 530.55 L 484.47 528.03 Q 484.47 526.63 485 525.65 Q 485.53 524.67 486.5 524.15 Q 487.47 523.63 488.79 523.63 Q 490.13 523.63 491.09 524.15 Q 492.05 524.67 492.58 525.65 Q 493.11 526.63 493.11 528.03 L 493.11 530.55 Q 493.11 531.93 492.58 532.92 Q 492.05 533.91 491.08 534.43 Q 490.11 534.95 488.79 534.95 Z M 488.79 533.35 Q 489.97 533.35 490.64 532.69 Q 491.31 532.03 491.31 530.75 L 491.31 527.83 Q 491.31 526.55 490.64 525.89 Q 489.97 525.23 488.79 525.23 Q 487.63 525.23 486.95 525.89 Q 486.27 526.55 486.27 527.83 L 486.27 530.75 Q 486.27 532.03 486.95 532.69 Q 487.63 533.35 488.79 533.35 Z M 496.62 534.79 L 496.62 523.79 L 498.42 523.79 L 498.42 525.89 L 498.8 525.89 L 498.42 526.31 Q 498.42 525.01 499.2 524.3 Q 499.98 523.59 501.36 523.59 Q 503.02 523.59 504 524.61 Q 504.98 525.63 504.98 527.39 L 504.98 534.79 L 503.18 534.79 L 503.18 527.71 Q 503.18 526.45 502.55 525.78 Q 501.92 525.11 500.84 525.11 Q 499.72 525.11 499.07 525.81 Q 498.42 526.51 498.42 527.79 L 498.42 534.79 Z" style="fill: rgb(240, 127, 175); text-wrap-mode: nowrap;"/><path style="fill: rgb(190, 190, 190); text-wrap-mode: nowrap;"/><path d="M 520.63 534.79 L 520.63 523.79 L 522.43 523.79 L 522.43 525.89 L 522.81 525.89 L 522.43 526.31 Q 522.43 525.01 523.21 524.3 Q 523.99 523.59 525.37 523.59 Q 527.03 523.59 528.01 524.61 Q 528.99 525.63 528.99 527.39 L 528.99 534.79 L 527.19 534.79 L 527.19 527.71 Q 527.19 526.45 526.56 525.78 Q 525.93 525.11 524.85 525.11 Q 523.73 525.11 523.08 525.81 Q 522.43 526.51 522.43 527.79 L 522.43 534.79 Z M 535.82 534.99 Q 534.12 534.99 533.12 534.04 Q 532.12 533.09 532.12 531.55 Q 532.12 530.53 532.58 529.77 Q 533.04 529.01 533.86 528.58 Q 534.68 528.15 535.74 528.15 L 539.14 528.15 L 539.14 527.29 Q 539.14 526.21 538.56 525.68 Q 537.98 525.15 536.8 525.15 Q 535.76 525.15 535.12 525.53 Q 534.48 525.91 534.44 526.59 L 532.64 526.59 Q 532.74 525.29 533.85 524.44 Q 534.96 523.59 536.8 523.59 Q 538.8 523.59 539.87 524.55 Q 540.94 525.51 540.94 527.23 L 540.94 534.79 L 539.16 534.79 L 539.16 532.79 L 538.86 532.79 L 539.14 532.39 Q 539.14 533.19 538.74 533.77 Q 538.34 534.35 537.6 534.67 Q 536.86 534.99 535.82 534.99 Z M 536.26 533.47 Q 537.58 533.47 538.36 532.83 Q 539.14 532.19 539.14 531.09 L 539.14 529.55 L 535.94 529.55 Q 535.06 529.55 534.51 530.08 Q 533.96 530.61 533.96 531.49 Q 533.96 532.41 534.57 532.94 Q 535.18 533.47 536.26 533.47 Z M 543.97 534.79 L 543.97 523.79 L 545.53 523.79 L 545.53 525.25 L 545.93 525.25 L 545.55 525.59 Q 545.55 524.71 546.06 524.15 Q 546.57 523.59 547.41 523.59 Q 548.37 523.59 548.93 524.31 Q 549.49 525.03 549.49 526.19 L 548.95 525.15 L 549.79 525.15 L 549.33 525.59 Q 549.35 524.67 549.87 524.13 Q 550.39 523.59 551.25 523.59 Q 552.31 523.59 552.94 524.38 Q 553.57 525.17 553.57 526.43 L 553.57 534.79 L 551.89 534.79 L 551.89 526.41 Q 551.89 525.75 551.57 525.36 Q 551.25 524.97 550.69 524.97 Q 550.15 524.97 549.83 525.35 Q 549.51 525.73 549.51 526.39 L 549.51 534.79 L 548.03 534.79 L 548.03 526.41 Q 548.03 525.75 547.71 525.36 Q 547.39 524.97 546.85 524.97 Q 546.29 524.97 545.97 525.35 Q 545.65 525.73 545.65 526.39 L 545.65 534.79 Z M 560.77 534.99 Q 559.47 534.99 558.5 534.46 Q 557.53 533.93 556.99 532.94 Q 556.45 531.95 556.45 530.59 L 556.45 527.99 Q 556.45 526.61 556.99 525.63 Q 557.53 524.65 558.5 524.12 Q 559.47 523.59 560.77 523.59 Q 562.07 523.59 563.04 524.11 Q 564.01 524.63 564.55 525.57 Q 565.09 526.51 565.09 527.79 L 565.09 529.75 L 558.21 529.75 L 558.21 530.79 Q 558.21 532.01 558.91 532.72 Q 559.61 533.43 560.77 533.43 Q 561.77 533.43 562.42 533.04 Q 563.07 532.65 563.21 531.99 L 565.01 531.99 Q 564.83 533.37 563.67 534.18 Q 562.51 534.99 560.77 534.99 Z M 563.33 528.53 L 563.33 527.79 Q 563.33 526.49 562.66 525.78 Q 561.99 525.07 560.77 525.07 Q 559.55 525.07 558.88 525.78 Q 558.21 526.49 558.21 527.79 L 558.21 528.35 L 563.47 528.35 Z M 568.47 526.59 L 568.47 524.99 L 577.07 524.99 L 577.07 526.59 Z M 568.47 531.39 L 568.47 529.79 L 577.07 529.79 L 577.07 531.39 Z M 581.79 526.19 L 581.63 520.19 L 583.67 520.19 L 583.53 526.19 Z M 586.03 526.19 L 585.87 520.19 L 587.91 520.19 L 587.77 526.19 Z" style="fill: rgb(223, 223, 223); text-wrap-mode: nowrap;"/><path d="M 591.73 534.79 L 593.47 523.79 L 595.27 523.79 L 594.93 525.89 L 595.31 525.89 L 594.87 526.31 Q 595.09 525.01 595.98 524.3 Q 596.87 523.59 598.25 523.59 Q 599.91 523.59 600.73 524.61 Q 601.55 525.63 601.27 527.39 L 600.09 534.79 L 598.29 534.79 L 599.41 527.71 Q 599.61 526.45 599.09 525.78 Q 598.57 525.11 597.49 525.11 Q 596.37 525.11 595.61 525.81 Q 594.85 526.51 594.63 527.79 L 593.53 534.79 Z M 607.84 534.99 Q 606.56 534.99 605.69 534.48 Q 604.82 533.97 604.45 533.02 Q 604.08 532.07 604.28 530.79 L 604.74 527.79 Q 605.04 525.79 606.33 524.69 Q 607.62 523.59 609.66 523.59 Q 610.96 523.59 611.83 524.1 Q 612.7 524.61 613.07 525.55 Q 613.44 526.49 613.24 527.77 L 612.76 530.79 Q 612.44 532.79 611.15 533.89 Q 609.86 534.99 607.84 534.99 Z M 608.1 533.39 Q 609.28 533.39 610.02 532.73 Q 610.76 532.07 610.96 530.79 L 611.42 527.79 Q 611.62 526.51 611.1 525.85 Q 610.58 525.19 609.4 525.19 Q 608.24 525.19 607.49 525.85 Q 606.74 526.51 606.54 527.79 L 606.08 530.79 Q 605.88 532.07 606.41 532.73 Q 606.94 533.39 608.1 533.39 Z M 620.98 534.79 Q 619.62 534.79 618.93 534 Q 618.24 533.21 618.44 531.89 L 619.46 525.43 L 616.3 525.43 L 616.56 523.79 L 619.72 523.79 L 620.22 520.69 L 622.02 520.69 L 621.52 523.79 L 626.02 523.79 L 625.76 525.43 L 621.26 525.43 L 620.24 531.89 Q 620.16 532.45 620.43 532.8 Q 620.7 533.15 621.24 533.15 L 624.44 533.15 L 624.18 534.79 Z M 631.83 534.99 Q 630.55 534.99 629.68 534.48 Q 628.81 533.97 628.44 533.02 Q 628.07 532.07 628.27 530.79 L 628.73 527.79 Q 629.03 525.79 630.32 524.69 Q 631.61 523.59 633.65 523.59 Q 634.95 523.59 635.82 524.1 Q 636.69 524.61 637.06 525.55 Q 637.43 526.49 637.23 527.77 L 636.75 530.79 Q 636.43 532.79 635.14 533.89 Q 633.85 534.99 631.83 534.99 Z M 632.09 533.39 Q 633.27 533.39 634.01 532.73 Q 634.75 532.07 634.95 530.79 L 635.41 527.79 Q 635.61 526.51 635.09 525.85 Q 634.57 525.19 633.39 525.19 Q 632.23 525.19 631.48 525.85 Q 630.73 526.51 630.53 527.79 L 630.07 530.79 Q 629.87 532.07 630.4 532.73 Q 630.93 533.39 632.09 533.39 Z M 645.17 526.59 Q 644.43 526.59 644.04 526.18 Q 643.65 525.77 643.75 525.09 Q 643.85 524.41 644.38 524 Q 644.91 523.59 645.65 523.59 Q 646.41 523.59 646.79 524 Q 647.17 524.41 647.07 525.09 Q 646.97 525.77 646.45 526.18 Q 645.93 526.59 645.17 526.59 Z M 643.83 534.99 Q 643.09 534.99 642.7 534.58 Q 642.31 534.17 642.41 533.49 Q 642.51 532.81 643.04 532.4 Q 643.57 531.99 644.31 531.99 Q 645.07 531.99 645.45 532.4 Q 645.83 532.81 645.73 533.49 Q 645.63 534.17 645.11 534.58 Q 644.59 534.99 643.83 534.99 Z M 655.81 534.99 Q 653.91 534.99 652.96 533.86 Q 652.01 532.73 652.31 530.79 L 653.41 523.79 L 655.21 523.79 L 654.11 530.79 Q 653.91 532.03 654.44 532.72 Q 654.97 533.41 656.07 533.41 Q 657.19 533.41 657.95 532.72 Q 658.71 532.03 658.91 530.79 L 660.01 523.79 L 661.81 523.79 L 660.71 530.79 Q 660.39 532.79 659.11 533.89 Q 657.83 534.99 655.81 534.99 Z M 663.71 534.79 L 665.45 523.79 L 667.25 523.79 L 666.91 525.89 L 667.29 525.89 L 666.85 526.31 Q 667.07 525.01 667.96 524.3 Q 668.85 523.59 670.23 523.59 Q 671.89 523.59 672.71 524.61 Q 673.53 525.63 673.25 527.39 L 672.07 534.79 L 670.27 534.79 L 671.39 527.71 Q 671.59 526.45 671.07 525.78 Q 670.55 525.11 669.47 525.11 Q 668.35 525.11 667.59 525.81 Q 666.83 526.51 666.61 527.79 L 665.51 534.79 Z M 675.46 534.79 L 675.72 533.15 L 679.62 533.15 L 680.84 525.43 L 677.44 525.43 L 677.7 523.79 L 682.9 523.79 L 681.42 533.15 L 685.12 533.15 L 684.86 534.79 Z M 682.22 521.81 Q 681.56 521.81 681.24 521.47 Q 680.92 521.13 681 520.55 Q 681.1 519.95 681.53 519.6 Q 681.96 519.25 682.62 519.25 Q 683.28 519.25 683.61 519.6 Q 683.94 519.95 683.84 520.55 Q 683.76 521.13 683.32 521.47 Q 682.88 521.81 682.22 521.81 Z M 691.98 534.99 Q 690.68 534.99 689.77 534.48 Q 688.86 533.97 688.46 533.02 Q 688.06 532.07 688.26 530.79 L 688.72 527.79 Q 689.02 525.79 690.37 524.69 Q 691.72 523.59 693.8 523.59 Q 695.06 523.59 695.94 524.06 Q 696.82 524.53 697.23 525.38 Q 697.64 526.23 697.5 527.39 L 695.7 527.39 Q 695.8 526.33 695.23 525.76 Q 694.66 525.19 693.54 525.19 Q 692.36 525.19 691.55 525.86 Q 690.74 526.53 690.54 527.77 L 690.06 530.79 Q 689.86 532.03 690.46 532.71 Q 691.06 533.39 692.24 533.39 Q 693.36 533.39 694.11 532.81 Q 694.86 532.23 695.1 531.19 L 696.9 531.19 Q 696.54 533.01 695.25 534 Q 693.96 534.99 691.98 534.99 Z M 703.82 534.99 Q 702.54 534.99 701.67 534.48 Q 700.8 533.97 700.43 533.02 Q 700.06 532.07 700.26 530.79 L 700.72 527.79 Q 701.02 525.79 702.31 524.69 Q 703.6 523.59 705.64 523.59 Q 706.94 523.59 707.81 524.1 Q 708.68 524.61 709.05 525.55 Q 709.42 526.49 709.22 527.77 L 708.74 530.79 Q 708.42 532.79 707.13 533.89 Q 705.84 534.99 703.82 534.99 Z M 704.08 533.39 Q 705.26 533.39 706 532.73 Q 706.74 532.07 706.94 530.79 L 707.4 527.79 Q 707.6 526.51 707.08 525.85 Q 706.56 525.19 705.38 525.19 Q 704.22 525.19 703.47 525.85 Q 702.72 526.51 702.52 527.79 L 702.06 530.79 Q 701.86 532.07 702.39 532.73 Q 702.92 533.39 704.08 533.39 Z M 712.1 534.79 L 713.84 523.79 L 715.64 523.79 L 715.3 525.89 L 715.68 525.89 L 715.24 526.37 Q 715.44 525.09 716.35 524.34 Q 717.26 523.59 718.66 523.59 Q 720.38 523.59 721.14 524.62 Q 721.9 525.65 721.6 527.55 L 721.46 528.49 L 719.66 528.49 L 719.8 527.55 Q 720 526.33 719.49 525.74 Q 718.98 525.15 717.84 525.15 Q 716.66 525.15 715.94 525.83 Q 715.22 526.51 715 527.79 L 713.9 534.79 Z M 723.69 534.79 L 725.43 523.79 L 727.23 523.79 L 726.89 525.89 L 727.27 525.89 L 726.83 526.31 Q 727.05 525.01 727.94 524.3 Q 728.83 523.59 730.21 523.59 Q 731.87 523.59 732.69 524.61 Q 733.51 525.63 733.23 527.39 L 732.05 534.79 L 730.25 534.79 L 731.37 527.71 Q 731.57 526.45 731.05 525.78 Q 730.53 525.11 729.45 525.11 Q 728.33 525.11 727.57 525.81 Q 726.81 526.51 726.59 527.79 L 725.49 534.79 Z" style="fill: rgb(247, 215, 23); text-wrap-mode: nowrap;"/><path d="M 737.76 526.19 L 737.6 520.19 L 739.64 520.19 L 739.5 526.19 Z M 742 526.19 L 741.84 520.19 L 743.88 520.19 L 743.74 526.19 Z M 760.92 536.99 L 768.02 518.19 L 769.92 518.19 L 768.62 521.65 L 780.12 527.19 L 780.12 529.19 L 771.52 533.49 L 771.52 531.69 L 777.72 528.67 Q 778.1 528.49 778.43 528.38 Q 778.76 528.27 778.92 528.23 Q 778.74 528.19 778.41 528.08 Q 778.08 527.97 777.72 527.79 L 768.06 523.13 L 762.82 536.99 Z" style="fill: rgb(223, 223, 223); text-wrap-mode: nowrap;"/></g></g><path d="M 508.88 521.84 L 508.88 528.4 L 507.2 528.4 L 507.2 513.86 L 508.88 513.86 L 508.88 519.2 L 509.02 519.2 Q 509.4 518.35 510.17 517.85 Q 510.94 517.35 512.23 517.35 Q 513.34 517.35 514.18 517.79 Q 515.02 518.24 515.49 519.15 Q 515.95 520.06 515.95 521.47 L 515.95 528.4 L 514.27 528.4 L 514.27 521.58 Q 514.27 520.28 513.6 519.57 Q 512.93 518.86 511.75 518.86 Q 510.92 518.86 510.27 519.2 Q 509.62 519.55 509.25 520.22 Q 508.88 520.89 508.88 521.84 Z M 523.76 517.49 L 523.76 518.91 L 518.1 518.91 L 518.1 517.49 Z M 519.75 514.88 L 521.43 514.88 L 521.43 525.28 Q 521.43 525.99 521.64 526.34 Q 521.85 526.69 522.18 526.81 Q 522.51 526.92 522.88 526.92 Q 523.15 526.92 523.33 526.89 Q 523.51 526.86 523.62 526.84 L 523.96 528.34 Q 523.79 528.41 523.48 528.48 Q 523.18 528.54 522.71 528.54 Q 522 528.54 521.32 528.24 Q 520.64 527.93 520.2 527.31 Q 519.75 526.68 519.75 525.73 Z M 531.03 517.49 L 531.03 518.91 L 525.38 518.91 L 525.38 517.49 Z M 527.03 514.88 L 528.7 514.88 L 528.7 525.28 Q 528.7 525.99 528.91 526.34 Q 529.12 526.69 529.45 526.81 Q 529.78 526.92 530.15 526.92 Q 530.43 526.92 530.61 526.89 Q 530.78 526.86 530.89 526.84 L 531.23 528.34 Q 531.06 528.41 530.75 528.48 Q 530.45 528.54 529.98 528.54 Q 529.27 528.54 528.59 528.24 Q 527.91 527.93 527.47 527.31 Q 527.03 526.68 527.03 525.73 Z M 533.56 532.49 L 533.56 517.49 L 535.18 517.49 L 535.18 519.22 L 535.38 519.22 Q 535.56 518.94 535.89 518.5 Q 536.22 518.05 536.85 517.7 Q 537.47 517.35 538.53 517.35 Q 539.91 517.35 540.96 518.04 Q 542.01 518.73 542.6 519.99 Q 543.19 521.26 543.19 522.97 Q 543.19 524.71 542.6 525.98 Q 542.01 527.24 540.97 527.94 Q 539.92 528.63 538.56 528.63 Q 537.51 528.63 536.88 528.28 Q 536.25 527.93 535.9 527.47 Q 535.56 527.02 535.38 526.72 L 535.24 526.72 L 535.24 532.49 Z M 535.21 522.95 Q 535.21 524.18 535.57 525.12 Q 535.93 526.06 536.63 526.59 Q 537.32 527.12 538.33 527.12 Q 539.38 527.12 540.09 526.57 Q 540.8 526.01 541.16 525.06 Q 541.52 524.11 541.52 522.95 Q 541.52 521.8 541.16 520.87 Q 540.81 519.94 540.11 519.4 Q 539.4 518.86 538.33 518.86 Q 537.31 518.86 536.61 519.37 Q 535.92 519.89 535.56 520.81 Q 535.21 521.72 535.21 522.95 Z M 553.48 519.94 L 551.97 520.36 Q 551.83 519.98 551.55 519.63 Q 551.28 519.27 550.81 519.03 Q 550.34 518.8 549.61 518.8 Q 548.61 518.8 547.95 519.26 Q 547.28 519.71 547.28 520.42 Q 547.28 521.04 547.74 521.41 Q 548.19 521.77 549.16 522.01 L 550.78 522.41 Q 552.24 522.76 552.96 523.49 Q 553.67 524.22 553.67 525.36 Q 553.67 526.3 553.14 527.04 Q 552.6 527.78 551.64 528.2 Q 550.68 528.63 549.41 528.63 Q 547.74 528.63 546.65 527.9 Q 545.56 527.18 545.27 525.79 L 546.86 525.39 Q 547.08 526.27 547.72 526.71 Q 548.35 527.15 549.38 527.15 Q 550.56 527.15 551.25 526.65 Q 551.94 526.15 551.94 525.45 Q 551.94 524.88 551.54 524.49 Q 551.15 524.1 550.32 523.91 L 548.5 523.49 Q 547.01 523.13 546.31 522.38 Q 545.61 521.63 545.61 520.5 Q 545.61 519.58 546.13 518.87 Q 546.65 518.16 547.56 517.75 Q 548.46 517.35 549.61 517.35 Q 551.23 517.35 552.16 518.06 Q 553.08 518.77 553.48 519.94 Z M 557.42 528.51 Q 556.9 528.51 556.52 528.14 Q 556.14 527.76 556.14 527.24 Q 556.14 526.71 556.52 526.33 Q 556.9 525.96 557.42 525.96 Q 557.95 525.96 558.32 526.33 Q 558.7 526.71 558.7 527.24 Q 558.7 527.58 558.53 527.88 Q 558.35 528.17 558.07 528.34 Q 557.78 528.51 557.42 528.51 Z M 557.42 520.42 Q 556.9 520.42 556.52 520.04 Q 556.14 519.67 556.14 519.14 Q 556.14 518.61 556.52 518.24 Q 556.9 517.86 557.42 517.86 Q 557.95 517.86 558.32 518.24 Q 558.7 518.61 558.7 519.14 Q 558.7 519.49 558.53 519.78 Q 558.35 520.07 558.07 520.24 Q 557.78 520.42 557.42 520.42 Z M 566.86 513.17 L 562.17 530.59 L 560.64 530.59 L 565.32 513.17 Z M 573.98 513.17 L 569.3 530.59 L 567.76 530.59 L 572.45 513.17 Z M 582.85 523.94 L 582.85 517.49 L 584.53 517.49 L 584.53 528.4 L 582.85 528.4 L 582.85 526.55 L 582.74 526.55 Q 582.35 527.39 581.54 527.96 Q 580.73 528.54 579.5 528.54 Q 578.47 528.54 577.68 528.09 Q 576.88 527.64 576.43 526.73 Q 575.97 525.82 575.97 524.42 L 575.97 517.49 L 577.65 517.49 L 577.65 524.31 Q 577.65 525.5 578.32 526.21 Q 578.99 526.92 580.04 526.92 Q 580.66 526.92 581.31 526.6 Q 581.96 526.28 582.41 525.62 Q 582.85 524.96 582.85 523.94 Z M 589.27 521.84 L 589.27 528.4 L 587.59 528.4 L 587.59 517.49 L 589.21 517.49 L 589.21 519.2 L 589.35 519.2 Q 589.74 518.37 590.52 517.86 Q 591.3 517.35 592.53 517.35 Q 593.64 517.35 594.47 517.8 Q 595.3 518.25 595.77 519.16 Q 596.23 520.08 596.23 521.47 L 596.23 528.4 L 594.55 528.4 L 594.55 521.58 Q 594.55 520.3 593.88 519.58 Q 593.22 518.86 592.05 518.86 Q 591.25 518.86 590.62 519.2 Q 589.99 519.55 589.63 520.22 Q 589.27 520.89 589.27 521.84 Z M 599.3 528.4 L 599.3 517.49 L 600.98 517.49 L 600.98 528.4 Z M 600.15 515.67 Q 599.66 515.67 599.31 515.34 Q 598.96 515.01 598.96 514.54 Q 598.96 514.07 599.31 513.73 Q 599.66 513.4 600.15 513.4 Q 600.64 513.4 601 513.73 Q 601.35 514.07 601.35 514.54 Q 601.35 515.01 601 515.34 Q 600.64 515.67 600.15 515.67 Z M 608.48 528.63 Q 606.94 528.63 605.83 527.9 Q 604.73 527.18 604.13 525.91 Q 603.53 524.64 603.53 523 Q 603.53 521.34 604.15 520.07 Q 604.76 518.79 605.87 518.07 Q 606.97 517.35 608.45 517.35 Q 609.6 517.35 610.52 517.78 Q 611.45 518.2 612.03 518.97 Q 612.62 519.74 612.77 520.76 L 611.09 520.76 Q 610.9 520.01 610.24 519.43 Q 609.58 518.86 608.48 518.86 Q 607.5 518.86 606.76 519.36 Q 606.03 519.87 605.62 520.79 Q 605.21 521.71 605.21 522.95 Q 605.21 524.21 605.61 525.15 Q 606.01 526.09 606.75 526.6 Q 607.48 527.12 608.48 527.12 Q 609.13 527.12 609.66 526.9 Q 610.2 526.67 610.56 526.24 Q 610.93 525.82 611.09 525.22 L 612.77 525.22 Q 612.62 526.19 612.07 526.96 Q 611.51 527.73 610.6 528.18 Q 609.68 528.63 608.48 528.63 Z M 619.64 528.63 Q 618.16 528.63 617.05 527.93 Q 615.94 527.22 615.32 525.96 Q 614.7 524.69 614.7 523 Q 614.7 521.3 615.32 520.03 Q 615.94 518.76 617.05 518.05 Q 618.16 517.35 619.64 517.35 Q 621.12 517.35 622.23 518.05 Q 623.34 518.76 623.96 520.03 Q 624.58 521.3 624.58 523 Q 624.58 524.69 623.96 525.96 Q 623.34 527.22 622.23 527.93 Q 621.12 528.63 619.64 528.63 Z M 619.64 527.12 Q 620.76 527.12 621.49 526.55 Q 622.21 525.97 622.56 525.03 Q 622.91 524.1 622.91 523 Q 622.91 521.91 622.56 520.96 Q 622.21 520.02 621.49 519.44 Q 620.76 518.86 619.64 518.86 Q 618.52 518.86 617.79 519.44 Q 617.07 520.02 616.72 520.96 Q 616.37 521.91 616.37 523 Q 616.37 524.1 616.72 525.03 Q 617.07 525.97 617.79 526.55 Q 618.52 527.12 619.64 527.12 Z M 628.81 521.84 L 628.81 528.4 L 627.14 528.4 L 627.14 517.49 L 628.76 517.49 L 628.76 519.2 L 628.9 519.2 Q 629.28 518.37 630.06 517.86 Q 630.85 517.35 632.08 517.35 Q 633.19 517.35 634.02 517.8 Q 634.85 518.25 635.31 519.16 Q 635.77 520.08 635.77 521.47 L 635.77 528.4 L 634.1 528.4 L 634.1 521.58 Q 634.1 520.3 633.43 519.58 Q 632.76 518.86 631.6 518.86 Q 630.8 518.86 630.17 519.2 Q 629.54 519.55 629.18 520.22 Q 628.81 520.89 628.81 521.84 Z M 640.06 528.51 Q 639.54 528.51 639.16 528.14 Q 638.78 527.76 638.78 527.24 Q 638.78 526.71 639.16 526.33 Q 639.54 525.96 640.06 525.96 Q 640.59 525.96 640.97 526.33 Q 641.34 526.71 641.34 527.24 Q 641.34 527.58 641.17 527.88 Q 640.99 528.17 640.71 528.34 Q 640.42 528.51 640.06 528.51 Z M 644.36 528.4 L 644.36 517.49 L 645.98 517.49 L 645.98 519.14 L 646.09 519.14 Q 646.39 518.33 647.17 517.83 Q 647.95 517.32 648.93 517.32 Q 649.12 517.32 649.39 517.33 Q 649.67 517.34 649.81 517.35 L 649.81 519.05 Q 649.73 519.03 649.42 518.99 Q 649.12 518.94 648.79 518.94 Q 647.99 518.94 647.37 519.27 Q 646.75 519.6 646.39 520.18 Q 646.03 520.76 646.03 521.5 L 646.03 528.4 Z M 655.89 528.63 Q 654.41 528.63 653.3 527.93 Q 652.19 527.22 651.57 525.96 Q 650.95 524.69 650.95 523 Q 650.95 521.3 651.57 520.03 Q 652.19 518.76 653.3 518.05 Q 654.41 517.35 655.89 517.35 Q 657.37 517.35 658.48 518.05 Q 659.59 518.76 660.21 520.03 Q 660.83 521.3 660.83 523 Q 660.83 524.69 660.21 525.96 Q 659.59 527.22 658.48 527.93 Q 657.37 528.63 655.89 528.63 Z M 655.89 527.12 Q 657.01 527.12 657.74 526.55 Q 658.46 525.97 658.81 525.03 Q 659.16 524.1 659.16 523 Q 659.16 521.91 658.81 520.96 Q 658.46 520.02 657.74 519.44 Q 657.01 518.86 655.89 518.86 Q 654.77 518.86 654.04 519.44 Q 653.32 520.02 652.97 520.96 Q 652.62 521.91 652.62 523 Q 652.62 524.1 652.97 525.03 Q 653.32 525.97 654.04 526.55 Q 654.77 527.12 655.89 527.12 Z M 667.82 528.63 Q 666.29 528.63 665.18 527.9 Q 664.07 527.18 663.47 525.91 Q 662.88 524.64 662.88 523 Q 662.88 521.34 663.49 520.07 Q 664.11 518.79 665.21 518.07 Q 666.31 517.35 667.79 517.35 Q 668.94 517.35 669.87 517.78 Q 670.79 518.2 671.38 518.97 Q 671.97 519.74 672.11 520.76 L 670.43 520.76 Q 670.24 520.01 669.59 519.43 Q 668.93 518.86 667.82 518.86 Q 666.84 518.86 666.11 519.36 Q 665.37 519.87 664.96 520.79 Q 664.55 521.71 664.55 522.95 Q 664.55 524.21 664.95 525.15 Q 665.36 526.09 666.09 526.6 Q 666.83 527.12 667.82 527.12 Q 668.47 527.12 669.01 526.9 Q 669.54 526.67 669.91 526.24 Q 670.28 525.82 670.43 525.22 L 672.11 525.22 Q 671.97 526.19 671.41 526.96 Q 670.85 527.73 669.94 528.18 Q 669.03 528.63 667.82 528.63 Z M 676.12 524.42 L 676.09 522.35 L 676.43 522.35 L 681.2 517.49 L 683.27 517.49 L 678.19 522.63 L 678.05 522.63 Z M 674.55 528.4 L 674.55 513.86 L 676.23 513.86 L 676.23 528.4 Z M 681.48 528.4 L 677.22 523 L 678.42 521.84 L 683.62 528.4 Z M 693.16 519.94 L 691.66 520.36 Q 691.52 519.98 691.24 519.63 Q 690.97 519.27 690.5 519.03 Q 690.03 518.8 689.3 518.8 Q 688.3 518.8 687.63 519.26 Q 686.97 519.71 686.97 520.42 Q 686.97 521.04 687.42 521.41 Q 687.88 521.77 688.84 522.01 L 690.46 522.41 Q 691.93 522.76 692.64 523.49 Q 693.36 524.22 693.36 525.36 Q 693.36 526.3 692.83 527.04 Q 692.29 527.78 691.33 528.2 Q 690.37 528.63 689.1 528.63 Q 687.43 528.63 686.34 527.9 Q 685.24 527.18 684.95 525.79 L 686.54 525.39 Q 686.77 526.27 687.41 526.71 Q 688.04 527.15 689.07 527.15 Q 690.24 527.15 690.94 526.65 Q 691.63 526.15 691.63 525.45 Q 691.63 524.88 691.23 524.49 Q 690.83 524.1 690.01 523.91 L 688.19 523.49 Q 686.69 523.13 685.99 522.38 Q 685.29 521.63 685.29 520.5 Q 685.29 519.58 685.82 518.87 Q 686.34 518.16 687.24 517.75 Q 688.15 517.35 689.3 517.35 Q 690.92 517.35 691.85 518.06 Q 692.77 518.77 693.16 519.94 Z" style="fill: rgb(223, 223, 223); text-wrap-mode: nowrap;"/><g id="object-4" transform="matrix(0.683978, 0, 0, 0.683978, 443.513275, -66.972923)" style=""><g transform="matrix(-1, 0, 0, 1, 153.776489, 43.60675)" style=""><path d="M 74.964 210.486 C 74.964 210.486 63.984 207.976 55.064 211.726 C 46.704 215.246 45.514 221.956 46.264 225.806 C 47.014 229.656 49.434 233.026 54.284 233.336 C 57.594 233.546 58.714 231.646 58.254 230.846 C 58.014 230.436 54.504 228.216 56.114 225.446 C 57.464 223.136 62.014 225.266 63.314 227.276 C 64.534 229.156 66.134 231.876 66.134 231.876 C 66.134 231.876 79.934 225.966 79.644 225.586 C 79.354 225.206 74.964 210.486 74.964 210.486" fill="#e74b8c"/><path d="M 74.304 218.186 L 69.984 214.336 L 62.904 222.926 L 66.934 229.206 L 77.214 224.706 L 74.304 218.186 Z" fill="#fcd817"/><path d="M 52.724 221.936 C 52.184 223.526 52.664 226.076 50.664 226.296 C 48.604 226.526 47.114 224.036 48.364 220.056 C 49.444 216.626 53.704 214.586 55.354 217.386 C 56.564 219.446 53.704 219.026 52.724 221.936" fill="#ef7fad"/><path d="M 62.714 206.686 C 62.434 207.156 57.554 214.336 57.554 214.336 L 62.244 221.796 L 67.874 218.936 L 69.044 213.256 L 62.714 206.686 Z" fill="#bbd047"/><path d="M 57.364 201.196 L 53.094 206.586 L 57.274 213.866 L 61.164 211.936 L 62.954 206.826 L 57.364 201.196 Z" fill="#62a5a8"/><path d="M 51.544 195.326 L 48.594 198.426 L 52.954 206.266 L 55.444 204.436 L 57.174 200.956 L 51.544 195.326 Z" fill="#38b2e8"/><path d="M 45.914 191.436 C 44.904 192.446 48.584 198.386 48.584 198.386 C 48.584 198.386 51.304 195.286 51.304 195.106 C 51.314 194.906 47.084 190.256 45.914 191.436" fill="#a37bcb"/><path d="M 69.054 212.876 C 70.414 212.496 71.354 215.036 70.134 217.616 C 69.044 219.916 67.464 221.696 65.344 222.876 C 64.294 223.456 62.714 224.096 62.104 222.966 C 61.444 221.756 62.194 221.136 63.514 220.196 C 64.724 219.326 65.954 218.036 66.654 216.816 C 67.354 215.596 68.034 213.156 69.054 212.876 M 62.574 206.076 C 63.674 205.756 64.494 207.956 63.504 210.166 C 62.624 212.136 61.534 213.706 59.834 214.716 C 58.994 215.216 57.714 215.766 57.224 214.796 C 56.694 213.756 57.194 213.026 58.254 212.216 C 59.234 211.476 60.084 210.116 60.644 209.076 C 61.214 208.036 61.754 206.316 62.574 206.076 M 56.964 200.076 C 57.874 200.326 58.514 201.936 57.694 203.586 C 56.964 205.056 56.254 205.836 54.834 206.586 C 54.124 206.956 53.304 207.426 52.854 206.866 C 52.284 206.166 52.074 205.166 52.964 204.566 C 53.784 204.016 54.704 203.346 55.314 202.176 C 55.724 201.366 56.124 199.846 56.964 200.076 M 50.944 194.516 C 51.564 194.366 52.324 195.666 51.774 196.706 C 51.284 197.636 50.654 198.226 49.694 198.706 C 49.224 198.946 48.694 199.086 48.414 198.636 C 48.114 198.146 47.834 197.806 48.434 197.426 C 48.984 197.076 49.754 196.286 50.074 195.786 C 50.394 195.296 50.484 194.636 50.944 194.516" fill="#a364b2"/><path d="M 74.154 305.576 C 73.144 304.906 78.154 287.486 80.124 282.846 C 82.094 278.196 83.264 274.306 83.264 274.306 C 83.264 274.306 73.834 275.756 67.734 275.806 C 63.084 275.846 56.334 275.246 56.334 275.246 L 42.814 257.506 C 42.814 257.506 46.614 250.606 48.864 247.796 C 51.114 244.976 57.874 235.826 61.254 232.596 C 64.634 229.356 69.274 225.976 71.254 225.136 C 73.224 224.296 74.494 223.726 74.494 223.726 C 74.494 223.726 73.504 217.676 73.934 213.876 C 74.354 210.076 79.744 199.466 80.594 199.466 C 81.724 199.466 86.604 206.696 87.584 211.616 C 88.574 216.536 99.274 230.336 99.274 230.336 L 130.524 289.466 C 130.524 289.466 131.084 305.236 130.944 305.796 C 130.804 306.356 113.484 308.756 102.924 308.756 C 92.364 308.756 75.004 306.146 74.154 305.576" fill="#dfdfdf"/><path d="M 95.444 255.056 C 94.404 255.006 91.434 260.956 88.454 265.336 C 85.944 269.016 83.004 270.786 79.864 272.426 C 76.624 274.116 71.814 275.216 73.454 275.546 C 75.094 275.876 84.884 274.786 88.164 273.406 C 90.014 272.636 92.594 268.826 93.914 266.296 C 95.234 263.766 97.604 255.146 95.444 255.056" fill="#b0b0b0"/><path d="M 77.664 243.616 C 77.874 246.716 76.744 249.386 73.514 249.596 C 71.234 249.746 69.524 247.436 69.234 244.616 C 69.004 242.416 69.924 239.576 72.934 239.156 C 75.764 238.756 77.464 240.786 77.664 243.616" fill="#303030"/><path d="M 87.444 211.656 C 87.444 211.656 95.934 215.476 99.204 214.756 C 101.734 214.196 102.614 212.366 102.724 210.536 C 102.864 208.076 100.684 208.356 100.334 207.366 C 99.984 206.376 102.584 204.616 105.614 205.186 C 108.644 205.746 112.254 208.546 112.184 213.046 C 112.114 217.546 109.344 219.966 109.344 219.966 C 109.344 219.966 116.644 219.616 121.524 224.616 C 127.014 230.246 125.814 239.466 125.814 239.466 C 125.814 239.466 128.704 239.886 129.754 238.406 C 130.804 236.926 130.524 235.236 129.824 234.256 C 129.124 233.266 131.164 232.636 132.494 233.196 C 133.834 233.756 140.014 238.186 136.654 245.336 C 134.574 249.776 129.324 250.446 129.324 250.446 C 129.324 250.446 138.124 254.336 141.344 264.146 C 144.884 274.946 141.014 282.126 137.004 289.016 C 132.994 295.916 133.354 296.326 133.134 298.586 C 132.854 301.406 132.004 304.926 130.954 304.846 C 129.894 304.776 128.634 301.816 127.994 298.586 C 127.364 295.346 123.414 292.176 120.254 289.296 C 117.094 286.416 109.154 278.806 106.874 271.846 C 103.984 263.046 105.464 250.796 105.464 250.796 C 105.464 250.796 96.734 246.786 91.874 238.756 C 86.614 230.066 87.084 223.696 87.084 223.696 C 87.084 223.696 88.424 219.896 88.494 217.286 C 88.564 214.676 87.444 211.656 87.444 211.656" fill="#e74b8c"/><path d="M 101.174 217.716 C 101.784 220.336 106.594 218.986 107.514 214.546 C 108.434 210.106 105.894 208.136 104.414 208.986 C 102.934 209.826 104.764 212.086 103.784 213.986 C 102.804 215.886 100.674 215.596 101.174 217.716 M 125.574 243.276 C 124.734 245.836 129.124 246.726 132.564 243.966 C 136.094 241.126 135.094 236.926 133.054 237.136 C 130.464 237.406 131.564 240.336 129.734 241.446 C 127.904 242.566 126.254 241.226 125.574 243.276 M 95.614 221.016 C 92.234 220.596 91.764 227.186 93.854 231.716 C 97.164 238.896 102.654 237.556 106.454 242.206 C 109.394 245.806 108.704 250.446 111.734 250.376 C 114.764 250.306 115.534 245.236 110.894 239.046 C 106.244 232.856 100.404 232.856 98.644 229.126 C 96.874 225.386 99.554 221.516 95.614 221.016 M 112.784 252.906 C 108.914 255.116 111.674 260.126 113.774 260.576 C 116.734 261.206 118.064 259.236 118.424 257.266 C 118.784 255.296 116.724 250.656 112.784 252.906 M 115.744 264.806 C 112.684 265.306 113.024 268.376 113.564 271.496 C 114.484 276.846 117.294 281.986 120.604 284.726 C 123.804 287.376 125.604 286.556 126.514 285.496 C 127.594 284.256 126.584 282.046 125.314 280.566 C 124.044 279.086 122.404 277.186 121.304 275.566 C 119.964 273.596 119.804 271.036 119.544 269.586 C 119.054 266.776 118.764 264.306 115.744 264.806" fill="#f081af"/><path d="M 35.214 278.956 C 38.314 284.806 45.564 283.316 45.564 283.316 C 45.564 283.316 52.394 280.216 52.394 280.006 C 52.394 279.796 56.894 274.096 56.894 274.096 C 56.894 274.096 55.694 268.956 51.054 263.326 C 47.384 258.886 43.524 256.706 43.524 256.706 L 35.074 264.306 C 35.074 264.306 30.854 270.716 35.214 278.956" fill="#fff"/><path d="M 40.774 263.536 C 40.284 265.366 41.904 266.066 42.464 266.706 C 43.024 267.336 41.694 270.016 43.594 270.716 C 45.494 271.416 47.674 268.256 46.974 265.506 C 46.214 262.566 41.514 260.796 40.774 263.536" fill="#90909b"/><path d="M 44.364 256.476 C 43.874 255.536 42.794 256.006 41.734 256.996 C 40.674 257.986 34.694 262.346 33.004 266.336 C 31.764 269.266 30.874 274.916 34.094 279.516 C 37.434 284.296 40.434 284.756 45.004 284.376 C 51.694 283.816 55.394 278.326 56.104 277.406 C 56.814 276.486 58.354 274.496 57.514 273.516 C 56.674 272.526 55.884 273.956 54.794 275.436 C 53.384 277.336 52.264 278.486 50.854 279.756 C 50.034 280.496 47.684 281.776 46.704 281.986 C 45.714 282.196 48.654 280.506 49.804 278.536 C 50.584 277.206 52.194 274.036 52.194 274.036 L 49.444 273.196 C 49.444 273.196 48.104 276.106 47.054 277.376 C 45.994 278.646 42.694 281.506 41.704 281.716 C 40.714 281.926 36.984 280.266 35.324 277.286 C 33.724 274.426 33.474 270.316 35.094 267.076 C 36.714 263.836 40.794 260.526 42.064 259.546 C 43.314 258.536 44.994 257.676 44.364 256.476" fill="#afafaf"/><path d="M 52.394 271.306 C 51.634 270.646 50.374 271.116 49.724 272.006 C 49.064 272.896 48.834 273.926 50.144 274.636 C 51.454 275.336 52.304 274.586 52.914 273.746 C 53.514 272.896 53.094 271.916 52.394 271.306" fill="#90909b"/></g><path d="M 205.725 273.412 L 217.041 273.412 L 217.041 314.221 C 217.041 318.694 215.989 322.629 213.884 326.024 C 211.78 329.42 208.826 332.069 205.024 333.97 C 201.221 335.871 196.778 336.822 191.695 336.822 C 186.591 336.822 182.138 335.871 178.336 333.97 C 174.534 332.069 171.585 329.42 169.49 326.024 C 167.396 322.629 166.349 318.694 166.349 314.221 L 166.349 273.412 L 177.665 273.412 L 177.665 313.275 C 177.665 315.878 178.239 318.196 179.388 320.229 C 180.537 322.263 182.159 323.854 184.253 325.002 C 186.347 326.151 188.828 326.726 191.695 326.726 C 194.562 326.726 197.048 326.151 199.152 325.002 C 201.257 323.854 202.878 322.263 204.017 320.229 C 205.156 318.196 205.725 315.878 205.725 313.275 L 205.725 273.412 Z M 239.901 308.426 L 239.901 335.876 L 228.86 335.876 L 228.86 289.028 L 239.413 289.028 L 239.413 296.988 L 239.962 296.988 C 241.04 294.365 242.763 292.281 245.132 290.736 C 247.501 289.19 250.434 288.418 253.931 288.418 C 257.164 288.418 259.986 289.109 262.395 290.492 C 264.805 291.874 266.675 293.877 268.007 296.5 C 269.339 299.123 269.995 302.305 269.974 306.046 L 269.974 335.876 L 258.934 335.876 L 258.934 307.755 C 258.934 304.623 258.125 302.173 256.509 300.404 C 254.892 298.635 252.661 297.751 249.813 297.751 C 247.882 297.751 246.169 298.173 244.674 299.016 C 243.18 299.86 242.011 301.075 241.166 302.661 C 240.323 304.247 239.901 306.169 239.901 308.426 Z M 281.225 335.876 L 281.225 289.028 L 292.266 289.028 L 292.266 335.876 L 281.225 335.876 Z M 286.791 282.378 C 285.033 282.378 283.523 281.791 282.262 280.615 C 281.001 279.439 280.371 278.026 280.371 276.376 C 280.371 274.725 281 273.315 282.258 272.146 C 283.516 270.977 285.022 270.392 286.776 270.392 C 288.545 270.392 290.054 270.98 291.305 272.155 C 292.556 273.331 293.181 274.744 293.181 276.395 C 293.181 278.046 292.556 279.456 291.305 280.625 C 290.054 281.794 288.55 282.378 286.791 282.378 Z M 324.035 336.792 C 319.358 336.792 315.347 335.765 312.002 333.711 C 308.657 331.657 306.085 328.815 304.286 325.186 C 302.486 321.557 301.586 317.373 301.586 312.635 C 301.586 307.877 302.502 303.673 304.332 300.023 C 306.162 296.373 308.749 293.526 312.094 291.483 C 315.438 289.439 319.399 288.418 323.974 288.418 C 327.777 288.418 331.147 289.114 334.084 290.507 C 337.023 291.9 339.366 293.862 341.115 296.393 C 342.864 298.925 343.86 301.878 344.104 305.253 L 333.551 305.253 C 333.124 302.997 332.112 301.111 330.516 299.596 C 328.92 298.081 326.79 297.324 324.126 297.324 C 321.869 297.324 319.887 297.929 318.179 299.139 C 316.471 300.349 315.144 302.082 314.199 304.339 C 313.253 306.596 312.78 309.3 312.78 312.451 C 312.78 315.644 313.248 318.384 314.184 320.671 C 315.119 322.959 316.435 324.718 318.133 325.948 C 319.831 327.179 321.829 327.794 324.126 327.794 C 325.753 327.794 327.212 327.484 328.503 326.863 C 329.794 326.243 330.877 325.343 331.752 324.164 C 332.626 322.985 333.226 321.551 333.551 319.863 L 344.104 319.863 C 343.84 323.178 342.864 326.111 341.176 328.663 C 339.488 331.215 337.191 333.208 334.283 334.641 C 331.375 336.075 327.959 336.792 324.035 336.792 Z M 373.639 336.792 C 369.064 336.792 365.099 335.785 361.744 333.772 C 358.389 331.759 355.791 328.942 353.951 325.323 C 352.111 321.703 351.191 317.474 351.191 312.635 C 351.191 307.796 352.111 303.556 353.951 299.916 C 355.791 296.277 358.389 293.45 361.744 291.437 C 365.099 289.424 369.064 288.418 373.639 288.418 C 378.214 288.418 382.179 289.424 385.534 291.437 C 388.889 293.45 391.487 296.277 393.327 299.916 C 395.167 303.556 396.087 307.796 396.087 312.635 C 396.087 317.474 395.167 321.703 393.327 325.323 C 391.487 328.942 388.889 331.759 385.534 333.772 C 382.179 335.785 378.214 336.792 373.639 336.792 Z M 373.7 327.946 C 376.181 327.946 378.255 327.26 379.922 325.888 C 381.59 324.515 382.835 322.67 383.658 320.352 C 384.482 318.034 384.893 315.451 384.893 312.604 C 384.893 309.737 384.482 307.14 383.658 304.811 C 382.835 302.483 381.59 300.628 379.922 299.245 C 378.255 297.863 376.181 297.171 373.7 297.171 C 371.158 297.171 369.049 297.863 367.371 299.245 C 365.694 300.628 364.443 302.483 363.619 304.811 C 362.796 307.14 362.384 309.737 362.384 312.604 C 362.384 315.451 362.796 318.034 363.619 320.352 C 364.443 322.67 365.694 324.515 367.371 325.888 C 369.049 327.26 371.158 327.946 373.7 327.946 Z M 416.463 308.426 L 416.463 335.876 L 405.421 335.876 L 405.421 289.028 L 415.974 289.028 L 415.974 296.988 L 416.523 296.988 C 417.601 294.365 419.324 292.281 421.693 290.736 C 424.062 289.19 426.995 288.418 430.493 288.418 C 433.726 288.418 436.547 289.109 438.956 290.492 C 441.366 291.874 443.236 293.877 444.568 296.5 C 445.9 299.123 446.556 302.305 446.536 306.046 L 446.536 335.876 L 435.494 335.876 L 435.494 307.755 C 435.494 304.623 434.686 302.173 433.069 300.404 C 431.453 298.635 429.221 297.751 426.375 297.751 C 424.443 297.751 422.73 298.173 421.236 299.016 C 419.741 299.86 418.572 301.075 417.728 302.661 C 416.884 304.247 416.463 306.169 416.463 308.426 Z" style="text-wrap-mode: nowrap; fill: rgb(255, 255, 255);"/></g><path fill-rule="evenodd" clip-rule="evenodd" d="M 113.042 0.793 L 1086.96 0.793 L 1086.96 0 L 113.042 0 L 113.042 0.793 Z M 239.643 578.829 L 239.643 625.893 L 240.556 625.893 L 240.556 578.829 L 295.083 578.829 L 295.083 625.893 L 295.997 625.893 L 295.997 578.829 L 350.522 578.829 L 350.522 625.893 L 351.435 625.893 L 351.435 578.829 L 405.962 578.829 L 405.962 625.893 L 406.874 625.893 L 406.874 578.829 L 461.4 578.829 L 461.4 625.893 L 462.314 625.893 L 462.314 578.829 L 516.842 578.829 L 516.842 625.893 L 517.753 625.893 L 517.753 578.829 L 572.28 578.829 L 572.28 625.893 L 573.193 625.893 L 573.193 578.829 L 627.719 578.829 L 627.719 625.893 L 628.632 625.893 L 628.632 578.829 L 683.158 578.829 L 683.158 625.893 L 684.072 625.893 L 684.072 578.829 L 738.598 578.829 L 738.598 625.893 L 739.512 625.893 L 739.512 578.829 L 794.037 578.829 L 794.037 625.893 L 794.952 625.893 L 794.952 578.829 L 849.477 578.829 L 849.477 625.893 L 850.391 625.893 L 850.391 578.829 L 904.917 578.829 L 904.917 625.893 L 905.83 625.893 L 905.83 578.829 L 960.357 578.829 L 960.357 625.893 L 961.268 625.893 L 961.268 578.829 L 1086.96 578.829 L 1086.96 578.035 L 961.268 578.035 L 961.268 530.661 L 1086.96 530.661 L 1086.96 529.866 L 961.268 529.866 L 961.268 482.489 L 1086.96 482.489 L 1086.96 481.696 L 961.268 481.696 L 961.268 434.32 L 1086.96 434.32 L 1086.96 433.528 L 961.268 433.528 L 961.268 386.151 L 1086.96 386.151 L 1086.96 385.357 L 961.268 385.357 L 961.268 337.982 L 1086.96 337.982 L 1086.96 337.188 L 961.268 337.188 L 961.268 289.811 L 1086.96 289.811 L 1086.96 289.018 L 961.268 289.018 L 961.268 241.642 L 1086.96 241.642 L 1086.96 240.849 L 961.268 240.849 L 961.268 193.472 L 1086.96 193.472 L 1086.96 192.679 L 961.268 192.679 L 961.268 145.302 L 1086.96 145.302 L 1086.96 144.509 L 961.268 144.509 L 961.268 97.131 L 1086.96 97.131 L 1086.96 96.338 L 961.268 96.338 L 961.268 48.962 L 1086.96 48.962 L 1086.96 48.169 L 961.268 48.169 L 961.268 1.896 L 960.357 1.896 L 960.357 48.169 L 905.83 48.169 L 905.83 1.896 L 904.917 1.896 L 904.917 48.169 L 850.391 48.169 L 850.391 1.896 L 849.477 1.896 L 849.477 48.169 L 794.952 48.169 L 794.952 1.896 L 794.037 1.896 L 794.037 48.169 L 739.512 48.169 L 739.512 1.896 L 738.598 1.896 L 738.598 48.169 L 684.072 48.169 L 684.072 1.896 L 683.158 1.896 L 683.158 48.169 L 628.632 48.169 L 628.632 1.896 L 627.719 1.896 L 627.719 48.169 L 573.193 48.169 L 573.193 1.896 L 572.28 1.896 L 572.28 48.169 L 517.753 48.169 L 517.753 1.896 L 516.842 1.896 L 516.842 48.169 L 462.314 48.169 L 462.314 1.896 L 461.4 1.896 L 461.4 48.169 L 406.874 48.169 L 406.874 1.896 L 405.962 1.896 L 405.962 48.169 L 351.435 48.169 L 351.435 1.896 L 350.522 1.896 L 350.522 48.169 L 295.997 48.169 L 295.997 1.896 L 295.083 1.896 L 295.083 48.169 L 240.556 48.169 L 240.556 1.896 L 239.643 1.896 L 239.643 48.169 L 113.041 48.169 L 113.041 48.962 L 239.643 48.962 L 239.643 96.338 L 113.042 96.338 L 113.042 97.131 L 239.643 97.131 L 239.643 144.509 L 113.041 144.509 L 113.041 145.302 L 239.643 145.302 L 239.643 192.68 L 113.042 192.68 L 113.042 193.474 L 239.643 193.474 L 239.643 240.849 L 113.041 240.849 L 113.041 241.642 L 239.643 241.642 L 239.643 289.018 L 113.041 289.018 L 113.041 289.811 L 239.643 289.811 L 239.643 337.188 L 113.041 337.188 L 113.041 337.982 L 239.643 337.982 L 239.643 385.357 L 113.041 385.357 L 113.041 386.151 L 239.643 386.151 L 239.643 433.528 L 113.042 433.528 L 113.042 434.32 L 239.643 434.32 L 239.643 481.696 L 113.042 481.696 L 113.042 482.489 L 239.643 482.489 L 239.643 529.866 L 113.042 529.866 L 113.042 530.661 L 239.643 530.661 L 239.643 578.035 L 113.041 578.035 L 113.041 578.829 L 239.643 578.829 Z M 905.83 48.962 L 960.357 48.962 L 960.357 96.338 L 905.83 96.338 L 905.83 48.962 Z M 850.391 48.962 L 904.917 48.962 L 904.917 96.338 L 850.391 96.338 L 850.391 48.962 Z M 794.952 48.962 L 849.477 48.962 L 849.477 96.338 L 794.952 96.338 L 794.952 48.962 Z M 739.512 48.962 L 794.037 48.962 L 794.037 96.338 L 739.512 96.338 L 739.512 48.962 Z M 684.072 48.962 L 738.598 48.962 L 738.598 96.338 L 684.072 96.338 L 684.072 48.962 Z M 628.632 48.962 L 683.158 48.962 L 683.158 96.338 L 628.632 96.338 L 628.632 48.962 Z M 573.193 48.962 L 627.719 48.962 L 627.719 96.338 L 573.193 96.338 L 573.193 48.962 Z M 517.753 48.962 L 572.28 48.962 L 572.28 96.338 L 517.753 96.338 L 517.753 48.962 Z M 462.314 48.962 L 516.842 48.962 L 516.842 96.338 L 462.314 96.338 L 462.314 48.962 Z M 406.874 48.962 L 461.4 48.962 L 461.4 96.338 L 406.874 96.338 L 406.874 48.962 Z M 351.435 48.962 L 405.962 48.962 L 405.962 96.338 L 351.435 96.338 L 351.435 48.962 Z M 295.997 48.962 L 350.522 48.962 L 350.522 96.338 L 295.997 96.338 L 295.997 48.962 Z M 240.556 48.962 L 295.083 48.962 L 295.083 96.338 L 240.556 96.338 L 240.556 48.962 Z M 240.556 97.131 L 240.556 144.509 L 295.083 144.509 L 295.083 97.131 L 240.556 97.131 Z M 295.997 97.131 L 295.997 144.509 L 350.522 144.509 L 350.522 97.131 L 295.997 97.131 Z M 351.435 97.131 L 351.435 144.509 L 405.962 144.509 L 405.962 97.131 L 351.435 97.131 Z M 406.874 97.131 L 406.874 144.509 L 461.4 144.509 L 461.4 97.131 L 406.874 97.131 Z M 462.314 97.131 L 462.314 144.509 L 516.842 144.509 L 516.842 97.131 L 462.314 97.131 Z M 517.753 97.131 L 517.753 144.509 L 572.28 144.509 L 572.28 97.131 L 517.753 97.131 Z M 573.193 97.131 L 573.193 144.509 L 627.719 144.509 L 627.719 97.131 L 573.193 97.131 Z M 628.632 97.131 L 628.632 144.509 L 683.158 144.509 L 683.158 97.131 L 628.632 97.131 Z M 684.072 97.131 L 684.072 144.509 L 738.598 144.509 L 738.598 97.131 L 684.072 97.131 Z M 739.512 97.131 L 739.512 144.509 L 794.037 144.509 L 794.037 97.131 L 739.512 97.131 Z M 794.952 97.131 L 794.952 144.509 L 849.477 144.509 L 849.477 97.131 L 794.952 97.131 Z M 850.391 97.131 L 850.391 144.509 L 904.917 144.509 L 904.917 97.131 L 850.391 97.131 Z M 905.83 97.131 L 905.83 144.509 L 960.357 144.509 L 960.357 97.131 L 905.83 97.131 Z M 905.83 145.302 L 960.357 145.302 L 960.357 192.679 L 905.83 192.679 L 905.83 145.302 Z M 850.391 145.302 L 904.917 145.302 L 904.917 192.679 L 850.391 192.679 L 850.391 145.302 Z M 794.952 145.302 L 849.477 145.302 L 849.477 192.679 L 794.952 192.679 L 794.952 145.302 Z M 739.512 145.302 L 794.037 145.302 L 794.037 192.679 L 739.512 192.679 L 739.512 145.302 Z M 684.072 145.302 L 738.598 145.302 L 738.598 192.679 L 684.072 192.679 L 684.072 145.302 Z M 628.632 145.302 L 683.158 145.302 L 683.158 192.679 L 628.632 192.679 L 628.632 145.302 Z M 573.193 145.302 L 627.719 145.302 L 627.719 192.679 L 573.193 192.679 L 573.193 145.302 Z M 517.753 145.302 L 572.28 145.302 L 572.28 192.679 L 517.753 192.679 L 517.753 145.302 Z M 462.314 145.302 L 516.842 145.302 L 516.842 192.679 L 462.314 192.679 L 462.314 145.302 Z M 406.874 145.302 L 461.4 145.302 L 461.4 192.679 L 406.874 192.679 L 406.874 145.302 Z M 351.435 145.302 L 405.962 145.302 L 405.962 192.679 L 351.435 192.68 L 351.435 145.302 Z M 295.997 145.302 L 350.522 145.302 L 350.522 192.68 L 295.997 192.68 L 295.997 145.302 Z M 240.556 145.302 L 295.083 145.302 L 295.083 192.68 L 240.556 192.68 L 240.556 145.302 Z M 240.556 193.474 L 240.556 240.849 L 295.083 240.849 L 295.083 193.474 L 240.556 193.474 Z M 295.997 193.474 L 295.997 240.849 L 350.522 240.849 L 350.522 193.474 L 295.997 193.474 Z M 351.435 193.474 L 351.435 240.849 L 405.962 240.849 L 405.962 193.472 L 351.435 193.474 Z M 406.874 193.472 L 406.874 240.849 L 461.4 240.849 L 461.4 193.472 L 406.874 193.472 Z M 462.314 193.472 L 462.314 240.849 L 516.842 240.849 L 516.842 193.472 L 462.314 193.472 Z M 517.753 193.472 L 517.753 240.849 L 572.28 240.849 L 572.28 193.472 L 517.753 193.472 Z M 573.193 193.472 L 573.193 240.849 L 627.719 240.849 L 627.719 193.472 L 573.193 193.472 Z M 628.632 193.472 L 628.632 240.849 L 683.158 240.849 L 683.158 193.472 L 628.632 193.472 Z M 684.072 193.472 L 684.072 240.849 L 738.598 240.849 L 738.598 193.472 L 684.072 193.472 Z M 739.512 193.472 L 739.512 240.849 L 794.037 240.849 L 794.037 193.472 L 739.512 193.472 Z M 794.952 193.472 L 794.952 240.849 L 849.477 240.849 L 849.477 193.472 L 794.952 193.472 Z M 850.391 193.472 L 850.391 240.849 L 904.917 240.849 L 904.917 193.472 L 850.391 193.472 Z M 905.83 193.472 L 905.83 240.849 L 960.357 240.849 L 960.357 193.472 L 905.83 193.472 Z M 905.83 241.642 L 960.357 241.642 L 960.357 289.018 L 905.83 289.018 L 905.83 241.642 Z M 850.391 241.642 L 904.917 241.642 L 904.917 289.018 L 850.391 289.018 L 850.391 241.642 Z M 794.952 241.642 L 849.477 241.642 L 849.477 289.018 L 794.952 289.018 L 794.952 241.642 Z M 739.512 241.642 L 794.037 241.642 L 794.037 289.018 L 739.512 289.018 L 739.512 241.642 Z M 684.072 241.642 L 738.598 241.642 L 738.598 289.018 L 684.072 289.018 L 684.072 241.642 Z M 628.632 241.642 L 683.158 241.642 L 683.158 289.018 L 628.632 289.018 L 628.632 241.642 Z M 573.193 241.642 L 627.719 241.642 L 627.719 289.018 L 573.193 289.018 L 573.193 241.642 Z M 517.753 241.642 L 572.28 241.642 L 572.28 289.018 L 517.753 289.018 L 517.753 241.642 Z M 462.314 241.642 L 516.842 241.642 L 516.842 289.018 L 462.314 289.018 L 462.314 241.642 Z M 406.874 241.642 L 461.4 241.642 L 461.4 289.018 L 406.874 289.018 L 406.874 241.642 Z M 351.435 241.642 L 405.962 241.642 L 405.962 289.018 L 351.435 289.018 L 351.435 241.642 Z M 295.997 241.642 L 350.522 241.642 L 350.522 289.018 L 295.997 289.018 L 295.997 241.642 Z M 240.556 241.642 L 295.083 241.642 L 295.083 289.018 L 240.556 289.018 L 240.556 241.642 Z M 240.556 289.811 L 240.556 337.188 L 295.083 337.188 L 295.083 289.811 L 240.556 289.811 Z M 295.997 289.811 L 295.997 337.188 L 350.522 337.188 L 350.522 289.811 L 295.997 289.811 Z M 351.435 289.811 L 351.435 337.188 L 405.962 337.188 L 405.962 289.811 L 351.435 289.811 Z M 406.874 289.811 L 406.874 337.188 L 461.4 337.188 L 461.4 289.811 L 406.874 289.811 Z M 462.314 289.811 L 462.314 337.188 L 516.842 337.188 L 516.842 289.811 L 462.314 289.811 Z M 517.753 289.811 L 517.753 337.188 L 572.28 337.188 L 572.28 289.811 L 517.753 289.811 Z M 573.193 289.811 L 573.193 337.188 L 627.719 337.188 L 627.719 289.811 L 573.193 289.811 Z M 628.632 289.811 L 628.632 337.188 L 683.158 337.188 L 683.158 289.811 L 628.632 289.811 Z M 684.072 289.811 L 684.072 337.188 L 738.598 337.188 L 738.598 289.811 L 684.072 289.811 Z M 739.512 289.811 L 739.512 337.188 L 794.037 337.188 L 794.037 289.811 L 739.512 289.811 Z M 794.952 289.811 L 794.952 337.188 L 849.477 337.188 L 849.477 289.811 L 794.952 289.811 Z M 850.391 289.811 L 850.391 337.188 L 904.917 337.188 L 904.917 289.811 L 850.391 289.811 Z M 905.83 289.811 L 905.83 337.188 L 960.357 337.188 L 960.357 289.811 L 905.83 289.811 Z M 905.83 337.982 L 960.357 337.982 L 960.357 385.357 L 905.83 385.357 L 905.83 337.982 Z M 850.391 337.982 L 904.917 337.982 L 904.917 385.357 L 850.391 385.357 L 850.391 337.982 Z M 794.952 337.982 L 849.477 337.982 L 849.477 385.357 L 794.952 385.357 L 794.952 337.982 Z M 739.512 337.982 L 794.037 337.982 L 794.037 385.357 L 739.512 385.357 L 739.512 337.982 Z M 684.072 337.982 L 738.598 337.982 L 738.598 385.357 L 684.072 385.357 L 684.072 337.982 Z M 628.632 337.982 L 683.158 337.982 L 683.158 385.357 L 628.632 385.357 L 628.632 337.982 Z M 573.193 337.982 L 627.719 337.982 L 627.719 385.357 L 573.193 385.357 L 573.193 337.982 Z M 517.753 337.982 L 572.28 337.982 L 572.28 385.357 L 517.753 385.357 L 517.753 337.982 Z M 462.314 337.982 L 516.842 337.982 L 516.842 385.357 L 462.314 385.357 L 462.314 337.982 Z M 406.874 337.982 L 461.4 337.982 L 461.4 385.357 L 406.874 385.357 L 406.874 337.982 Z M 351.435 337.982 L 405.962 337.982 L 405.962 385.357 L 351.435 385.357 L 351.435 337.982 Z M 295.997 337.982 L 350.522 337.982 L 350.522 385.357 L 295.997 385.357 L 295.997 337.982 Z M 240.556 337.982 L 295.083 337.982 L 295.083 385.357 L 240.556 385.357 L 240.556 337.982 Z M 240.556 386.151 L 240.556 433.528 L 295.083 433.528 L 295.083 386.151 L 240.556 386.151 Z M 295.997 386.151 L 295.997 433.528 L 350.522 433.528 L 350.522 386.151 L 295.997 386.151 Z M 351.435 386.151 L 351.435 433.528 L 405.962 433.528 L 405.962 386.151 L 351.435 386.151 Z M 406.874 386.151 L 406.874 433.528 L 461.4 433.528 L 461.4 386.151 L 406.874 386.151 Z M 462.314 386.151 L 462.314 433.528 L 516.842 433.528 L 516.842 386.151 L 462.314 386.151 Z M 517.753 386.151 L 517.753 433.528 L 572.28 433.528 L 572.28 386.151 L 517.753 386.151 Z M 573.193 386.151 L 573.193 433.528 L 627.719 433.528 L 627.719 386.151 L 573.193 386.151 Z M 628.632 386.151 L 628.632 433.528 L 683.158 433.528 L 683.158 386.151 L 628.632 386.151 Z M 684.072 386.151 L 684.072 433.528 L 738.598 433.528 L 738.598 386.151 L 684.072 386.151 Z M 739.512 386.151 L 739.512 433.528 L 794.037 433.528 L 794.037 386.151 L 739.512 386.151 Z M 794.952 386.151 L 794.952 433.528 L 849.477 433.528 L 849.477 386.151 L 794.952 386.151 Z M 850.391 386.151 L 850.391 433.528 L 904.917 433.528 L 904.917 386.151 L 850.391 386.151 Z M 905.83 386.151 L 905.83 433.528 L 960.357 433.528 L 960.357 386.151 L 905.83 386.151 Z M 905.83 434.32 L 960.357 434.32 L 960.357 481.696 L 905.83 481.696 L 905.83 434.32 Z M 850.391 434.32 L 904.917 434.32 L 904.917 481.696 L 850.391 481.696 L 850.391 434.32 Z M 794.952 434.32 L 849.477 434.32 L 849.477 481.696 L 794.952 481.696 L 794.952 434.32 Z M 739.512 434.32 L 794.037 434.32 L 794.037 481.696 L 739.512 481.696 L 739.512 434.32 Z M 684.072 434.32 L 738.598 434.32 L 738.598 481.696 L 684.072 481.696 L 684.072 434.32 Z M 628.632 434.32 L 683.158 434.32 L 683.158 481.696 L 628.632 481.696 L 628.632 434.32 Z M 573.193 434.32 L 627.719 434.32 L 627.719 481.696 L 573.193 481.696 L 573.193 434.32 Z M 517.753 434.32 L 572.28 434.32 L 572.28 481.696 L 517.753 481.696 L 517.753 434.32 Z M 462.314 434.32 L 516.842 434.32 L 516.842 481.696 L 462.314 481.696 L 462.314 434.32 Z M 406.874 434.32 L 461.4 434.32 L 461.4 481.696 L 406.874 481.696 L 406.874 434.32 Z M 351.435 434.32 L 405.962 434.32 L 405.962 481.696 L 351.435 481.696 L 351.435 434.32 Z M 295.997 434.32 L 350.522 434.32 L 350.522 481.696 L 295.997 481.696 L 295.997 434.32 Z M 240.556 434.32 L 295.083 434.32 L 295.083 481.696 L 240.556 481.696 L 240.556 434.32 Z M 240.556 482.489 L 240.556 529.866 L 295.083 529.866 L 295.083 482.489 L 240.556 482.489 Z M 295.997 482.489 L 295.997 529.866 L 350.522 529.866 L 350.522 482.489 L 295.997 482.489 Z M 351.435 482.489 L 351.435 529.866 L 405.962 529.866 L 405.962 482.489 L 351.435 482.489 Z M 406.874 482.489 L 406.874 529.866 L 461.4 529.866 L 461.4 482.489 L 406.874 482.489 Z M 462.314 482.489 L 462.314 529.866 L 516.842 529.866 L 516.842 482.489 L 462.314 482.489 Z M 517.753 482.489 L 517.753 529.866 L 572.28 529.866 L 572.28 482.489 L 517.753 482.489 Z M 573.193 482.489 L 573.193 529.866 L 627.719 529.866 L 627.719 482.489 L 573.193 482.489 Z M 628.632 482.489 L 628.632 529.866 L 683.158 529.866 L 683.158 482.489 L 628.632 482.489 Z M 684.072 482.489 L 684.072 529.866 L 738.598 529.866 L 738.598 482.489 L 684.072 482.489 Z M 739.512 482.489 L 739.512 529.866 L 794.037 529.866 L 794.037 482.489 L 739.512 482.489 Z M 794.952 482.489 L 794.952 529.866 L 849.477 529.866 L 849.477 482.489 L 794.952 482.489 Z M 850.391 482.489 L 850.391 529.866 L 904.917 529.866 L 904.917 482.489 L 850.391 482.489 Z M 905.83 482.489 L 905.83 529.866 L 960.357 529.866 L 960.357 482.489 L 905.83 482.489 Z M 905.83 530.661 L 960.357 530.661 L 960.357 578.035 L 905.83 578.035 L 905.83 530.661 Z M 850.391 530.661 L 904.917 530.661 L 904.917 578.035 L 850.391 578.035 L 850.391 530.661 Z M 794.952 530.661 L 849.477 530.661 L 849.477 578.035 L 794.952 578.035 L 794.952 530.661 Z M 739.512 530.661 L 794.037 530.661 L 794.037 578.035 L 739.512 578.035 L 739.512 530.661 Z M 684.072 530.661 L 738.598 530.661 L 738.598 578.035 L 684.072 578.035 L 684.072 530.661 Z M 628.632 530.661 L 683.158 530.661 L 683.158 578.035 L 628.632 578.035 L 628.632 530.661 Z M 573.193 530.661 L 627.719 530.661 L 627.719 578.035 L 573.193 578.035 L 573.193 530.661 Z M 517.753 530.661 L 572.28 530.661 L 572.28 578.035 L 517.753 578.035 L 517.753 530.661 Z M 462.314 530.661 L 516.842 530.661 L 516.842 578.035 L 462.314 578.035 L 462.314 530.661 Z M 406.874 530.661 L 461.4 530.661 L 461.4 578.035 L 406.874 578.035 L 406.874 530.661 Z M 351.435 530.661 L 405.962 530.661 L 405.962 578.035 L 351.435 578.035 L 351.435 530.661 Z M 295.997 530.661 L 350.522 530.661 L 350.522 578.035 L 295.997 578.035 L 295.997 530.661 Z M 240.556 530.661 L 295.083 530.661 L 295.083 578.035 L 240.556 578.035 L 240.556 530.661 Z M 1086.96 626.999 L 113.041 627 L 113.041 626.207 L 1086.96 626.206 L 1086.96 626.999 Z" class="fill-primary dark:fill-primary-light" style="fill-opacity: 0.6; fill: url(&quot;#gradient-1-0&quot;);" mask="url(#mask-dark)"/><mask id="mask-dark" maskUnits="userSpaceOnUse" style="mask-type:alpha" x="0" y="-80" width="936" height="671"><ellipse cx="493.173" cy="255.536" rx="379.526" ry="335.114" fill="url(#radial-dark)"/></mask></svg>